<svg width="24" height="24" viewBox="0 0 24 24" fill="none" xmlns="http://www.w3.org/2000/svg">
<path d="M8 10C7.44772 10 7 10.4477 7 11C7 11.5523 7.44772 12 8 12H14C14.5523 12 15 11.5523 15 11C15 10.4477 14.5523 10 14 10H8Z" fill="#2D3648"/>
<path fill-rule="evenodd" clip-rule="evenodd" d="M11 20C13.125 20 15.078 19.2635 16.6176 18.032L20.2928 21.7071C20.6833 22.0977 21.3165 22.0977 21.707 21.7071C22.0975 21.3166 22.0975 20.6834 21.707 20.2929L18.0318 16.6178C19.2635 15.0781 20 13.125 20 11C20 6.02944 15.9706 2 11 2C6.02944 2 2 6.02944 2 11C2 15.9706 6.02944 20 11 20ZM11 4C7.13401 4 4 7.13401 4 11C4 14.866 7.13401 18 11 18C12.8858 18 14.5974 17.2543 15.8561 16.0417C15.8825 16.0074 15.9114 15.9744 15.9428 15.9429C15.9742 15.9115 16.0072 15.8826 16.0416 15.8562C17.2543 14.5975 18 12.8858 18 11C18 7.13401 14.866 4 11 4Z" fill="#2D3648"/>
</svg>
