<svg width="24" height="24" viewBox="0 0 24 24" fill="none" xmlns="http://www.w3.org/2000/svg">
<g clip-path="url(#clip0_3_2082)">
<circle cx="12" cy="12" r="12" fill="#1A202C"/>
<path d="M11.8881 6.67901C12.4118 6.67901 12.9156 6.76684 13.3995 6.9425C13.8867 7.11817 14.3209 7.39823 14.7021 7.7827C15.0865 8.16717 15.3898 8.67759 15.6119 9.31395C15.8372 9.947 15.9516 10.7242 15.9549 11.6456C15.9549 12.5107 15.8571 13.2829 15.6616 13.9624C15.4693 14.6385 15.1926 15.2136 14.8313 15.6875C14.4701 16.1615 14.0342 16.5228 13.5238 16.7713C13.0134 17.0166 12.4433 17.1392 11.8136 17.1392C11.1341 17.1392 10.5342 17.0083 10.0139 16.7465C9.49349 16.4813 9.07422 16.1217 8.75604 15.6676C8.44117 15.2103 8.25059 14.6965 8.18431 14.1265H10.3072C10.39 14.4977 10.564 14.786 10.8292 14.9915C11.0943 15.1937 11.4225 15.2948 11.8136 15.2948C12.4764 15.2948 12.9802 15.0064 13.3249 14.4297C13.6696 13.8497 13.8436 13.0559 13.8469 12.0483H13.7773C13.6249 12.3466 13.4194 12.6035 13.1609 12.8189C12.9023 13.031 12.6057 13.1951 12.271 13.3111C11.9395 13.4271 11.5865 13.4851 11.212 13.4851C10.6121 13.4851 10.0768 13.3443 9.60618 13.0625C9.13554 12.7808 8.76433 12.393 8.49254 11.8992C8.22076 11.4053 8.08487 10.8419 8.08487 10.2088C8.08156 9.52607 8.23899 8.91788 8.55718 8.38426C8.87536 7.85065 9.31949 7.43303 9.88956 7.13142C10.463 6.8265 11.1291 6.67569 11.8881 6.67901ZM11.9031 8.36935C11.5683 8.36935 11.27 8.44889 11.0082 8.60799C10.7496 8.76708 10.5442 8.98086 10.3917 9.24932C10.2425 9.51779 10.1696 9.81774 10.1729 10.1492C10.1729 10.4839 10.2459 10.7855 10.3917 11.054C10.5408 11.3192 10.743 11.5313 10.9982 11.6904C11.2567 11.8461 11.5517 11.924 11.8832 11.924C12.1318 11.924 12.3621 11.8776 12.5742 11.7848C12.7863 11.692 12.9703 11.5644 13.1261 11.402C13.2852 11.2363 13.4094 11.0457 13.4989 10.8303C13.5884 10.6149 13.6332 10.3862 13.6332 10.1442C13.6299 9.82271 13.5536 9.52773 13.4045 9.25926C13.2553 8.9908 13.0498 8.77536 12.788 8.61296C12.5262 8.45055 12.2312 8.36935 11.9031 8.36935Z" fill="white"/>
</g>
<defs>
<clipPath id="clip0_3_2082">
<rect width="24" height="24" fill="white"/>
</clipPath>
</defs>
</svg>
