<svg width="24" height="24" viewBox="0 0 24 24" fill="none" xmlns="http://www.w3.org/2000/svg">
<path d="M13 3C11.6739 3 10.4021 3.52678 9.46447 4.46447C8.52678 5.40215 8 6.67392 8 8V17.5858L4.70711 14.2929C4.31658 13.9024 3.68342 13.9024 3.29289 14.2929C2.90237 14.6834 2.90237 15.3166 3.29289 15.7071L8.29289 20.7071C8.68342 21.0976 9.31658 21.0976 9.70711 20.7071L14.7071 15.7071C15.0976 15.3166 15.0976 14.6834 14.7071 14.2929C14.3166 13.9024 13.6834 13.9024 13.2929 14.2929L10 17.5858V8C10 7.20435 10.3161 6.44129 10.8787 5.87868C11.4413 5.31607 12.2044 5 13 5H20C20.5523 5 21 4.55228 21 4C21 3.44772 20.5523 3 20 3H13Z" fill="#2D3648"/>
</svg>
