<svg width="24" height="24" viewBox="0 0 24 24" fill="none" xmlns="http://www.w3.org/2000/svg">
<path d="M15 3C15 2.44772 15.4477 2 16 2H21C21.5523 2 22 2.44772 22 3V8C22 8.55228 21.5523 9 21 9C20.4477 9 20 8.55228 20 8V5.41421L4.70711 20.7071C4.31658 21.0976 3.68342 21.0976 3.29289 20.7071C2.90237 20.3166 2.90237 19.6834 3.29289 19.2929L18.5858 4H16C15.4477 4 15 3.55228 15 3Z" fill="#2D3648"/>
<path d="M22 16C22 15.4477 21.5523 15 21 15C20.4477 15 20 15.4477 20 16V18.5858L15.7071 14.2929C15.3166 13.9024 14.6834 13.9024 14.2929 14.2929C13.9024 14.6834 13.9024 15.3166 14.2929 15.7071L18.5858 20H16C15.4477 20 15 20.4477 15 21C15 21.5523 15.4477 22 16 22H21C21.5523 22 22 21.5523 22 21V16Z" fill="#2D3648"/>
<path d="M4.70711 3.29289C4.31658 2.90237 3.68342 2.90237 3.29289 3.29289C2.90237 3.68342 2.90237 4.31658 3.29289 4.70711L8.29289 9.70711C8.68342 10.0976 9.31658 10.0976 9.70711 9.70711C10.0976 9.31658 10.0976 8.68342 9.70711 8.29289L4.70711 3.29289Z" fill="#2D3648"/>
</svg>
