<svg width="24" height="24" viewBox="0 0 24 24" fill="none" xmlns="http://www.w3.org/2000/svg">
<path d="M12.7071 1.29289C12.3166 0.902369 11.6834 0.902369 11.2929 1.29289L7.29289 5.29289C6.90237 5.68342 6.90237 6.31658 7.29289 6.70711C7.68342 7.09763 8.31658 7.09763 8.70711 6.70711L11 4.41421V9C11 9.55229 11.4477 10 12 10C12.5523 10 13 9.55228 13 9V4.41421L15.2929 6.70711C15.6834 7.09763 16.3166 7.09763 16.7071 6.70711C17.0976 6.31658 17.0976 5.68342 16.7071 5.29289L12.7071 1.29289Z" fill="#2D3648"/>
<path d="M12 12C10.4087 12 8.88258 12.6321 7.75736 13.7574C6.63214 14.8826 6 16.4087 6 18C6 18.5523 6.44772 19 7 19C7.55228 19 8 18.5523 8 18C8 16.9391 8.42143 15.9217 9.17157 15.1716C9.92172 14.4214 10.9391 14 12 14C13.0609 14 14.0783 14.4214 14.8284 15.1716C15.5786 15.9217 16 16.9391 16 18C16 18.5523 16.4477 19 17 19C17.5523 19 18 18.5523 18 18C18 16.4087 17.3679 14.8826 16.2426 13.7574C15.1174 12.6321 13.5913 12 12 12Z" fill="#2D3648"/>
<path d="M3.51286 9.51286C3.90339 9.12234 4.53655 9.12234 4.92708 9.51286L6.34708 10.9329C6.7376 11.3234 6.7376 11.9566 6.34708 12.3471C5.95655 12.7376 5.32339 12.7376 4.93286 12.3471L3.51286 10.9271C3.12234 10.5366 3.12234 9.90339 3.51286 9.51286Z" fill="#2D3648"/>
<path d="M1 17C0.447715 17 0 17.4477 0 18C0 18.5523 0.447715 19 1 19H3C3.55228 19 4 18.5523 4 18C4 17.4477 3.55228 17 3 17H1Z" fill="#2D3648"/>
<path d="M20 18C20 17.4477 20.4477 17 21 17H23C23.5523 17 24 17.4477 24 18C24 18.5523 23.5523 19 23 19H21C20.4477 19 20 18.5523 20 18Z" fill="#2D3648"/>
<path d="M20.4872 10.9271C20.8777 10.5366 20.8777 9.90339 20.4872 9.51286C20.0967 9.12234 19.4635 9.12234 19.073 9.51286L17.653 10.9329C17.2625 11.3234 17.2625 11.9566 17.653 12.3471C18.0435 12.7376 18.6767 12.7376 19.0672 12.3471L20.4872 10.9271Z" fill="#2D3648"/>
<path d="M0 22C0 21.4477 0.447715 21 1 21H23C23.5523 21 24 21.4477 24 22C24 22.5523 23.5523 23 23 23H1C0.447715 23 0 22.5523 0 22Z" fill="#2D3648"/>
</svg>
