<svg width="24" height="24" viewBox="0 0 24 24" fill="none" xmlns="http://www.w3.org/2000/svg">
<g clip-path="url(#clip0_3_2310)">
<circle cx="12" cy="12" r="12" fill="#1A202C"/>
<path d="M9.08084 6.81816V17H6.92814V8.86148H6.86848L4.5368 10.3231V8.41404L7.0574 6.81816H9.08084Z" fill="white"/>
<path d="M15.3529 17.2237C14.4978 17.2204 13.762 17.0099 13.1456 16.5923C12.5324 16.1747 12.0601 15.5698 11.7287 14.7777C11.4005 13.9855 11.2381 13.0326 11.2414 11.919C11.2414 10.8087 11.4055 9.86243 11.7336 9.08023C12.0651 8.29804 12.5374 7.7031 13.1505 7.29543C13.767 6.88445 14.5011 6.67896 15.3529 6.67896C16.2047 6.67896 16.9372 6.88445 17.5504 7.29543C18.1669 7.70642 18.6408 8.30301 18.9723 9.08521C19.3037 9.86409 19.4678 10.8087 19.4645 11.919C19.4645 13.036 19.2987 13.9905 18.9673 14.7826C18.6392 15.5748 18.1685 16.1797 17.5554 16.5973C16.9422 17.0149 16.2081 17.2237 15.3529 17.2237ZM15.3529 15.4389C15.9363 15.4389 16.402 15.1456 16.75 14.5589C17.098 13.9723 17.2703 13.0923 17.267 11.919C17.267 11.1468 17.1875 10.5038 17.0284 9.99003C16.8726 9.4763 16.6505 9.09018 16.3622 8.83165C16.0771 8.57313 15.7407 8.44387 15.3529 8.44387C14.7729 8.44387 14.3089 8.73388 13.9609 9.3139C13.6129 9.89392 13.4372 10.7623 13.4339 11.919C13.4339 12.7012 13.5118 13.3541 13.6676 13.8778C13.8267 14.3982 14.0504 14.7893 14.3387 15.0511C14.6271 15.3096 14.9652 15.4389 15.3529 15.4389Z" fill="white"/>
</g>
<defs>
<clipPath id="clip0_3_2310">
<rect width="24" height="24" fill="white"/>
</clipPath>
</defs>
</svg>
