<svg width="24" height="24" viewBox="0 0 24 24" fill="none" xmlns="http://www.w3.org/2000/svg">
<path fill-rule="evenodd" clip-rule="evenodd" d="M19.662 0.999873H5.72511C5.00382 0.993214 4.30419 1.24667 3.75448 1.71393C3.20342 2.18233 2.84012 2.83403 2.73147 3.54903L1.35135 12.5498C1.28609 12.9798 1.31509 13.4188 1.43634 13.8364C1.5576 14.2541 1.7682 14.6404 2.05357 14.9685C2.33893 15.2967 2.69223 15.5589 3.089 15.737C3.48387 15.9142 3.91239 16.0039 4.34514 15.9999H9.00003V18.9999C9.00003 20.0607 9.42146 21.0782 10.1716 21.8283C10.9217 22.5784 11.9392 22.9999 13 22.9999C13.3952 22.9999 13.7533 22.7671 13.9138 22.406L17.6499 13.9999H19.662C20.4696 14.0118 21.2538 13.728 21.8668 13.2019C22.4822 12.6736 22.8823 11.9377 22.991 11.1339C22.997 11.0895 23 11.0447 23 10.9999V3.99987C23 3.95504 22.997 3.91026 22.991 3.86583C22.8823 3.06206 22.4822 2.32618 21.8668 1.7979C21.2538 1.2717 20.4696 0.98794 19.662 0.999873ZM19.6877 2.99972C20.0087 2.99404 20.3205 3.10641 20.5641 3.31549C20.793 3.51197 20.9466 3.78102 21 4.07674V10.923C20.9466 11.2187 20.793 11.4878 20.5641 11.6843C20.3205 11.8933 20.0087 12.0057 19.6877 12L19.67 11.9999H18V2.99987H19.67L19.6877 2.99972ZM12.3922 20.9053L16 12.7877V2.99987H5.70872C5.46756 2.99715 5.23354 3.08161 5.04977 3.23781C4.86601 3.39401 4.74489 3.61136 4.70873 3.84981L3.32871 12.8499C3.30707 12.9931 3.31667 13.1398 3.35704 13.2788C3.39745 13.418 3.46766 13.5468 3.56278 13.6562C3.6579 13.7656 3.77567 13.853 3.90792 13.9123C4.04017 13.9717 4.18375 14.0016 4.32871 13.9999L4.34003 13.9998L10 13.9999C10.5523 13.9999 11 14.4476 11 14.9999V18.9999C11 19.5303 11.2107 20.039 11.5858 20.4141C11.8137 20.6419 12.0908 20.8091 12.3922 20.9053Z" fill="#2D3648"/>
</svg>
