<svg width="24" height="24" viewBox="0 0 24 24" fill="none" xmlns="http://www.w3.org/2000/svg">
<path fill-rule="evenodd" clip-rule="evenodd" d="M15.78 2.38782C14.9838 2.38782 14.2201 2.70412 13.6571 3.26715L4.46712 12.4571C3.52881 13.3955 3.00168 14.6681 3.00168 15.995C3.00168 17.322 3.52881 18.5946 4.46712 19.5329C5.40543 20.4712 6.67805 20.9984 8.00502 20.9984C9.33198 20.9984 10.6046 20.4712 11.5429 19.5329L20.7329 10.3429C21.1234 9.95241 21.7566 9.95241 22.1471 10.3429C22.5376 10.7335 22.5376 11.3666 22.1471 11.7571L12.9571 20.9471C11.6437 22.2605 9.86242 22.9984 8.00502 22.9984C6.14761 22.9984 4.36629 22.2605 3.05291 20.9471C1.73953 19.6338 1.00168 17.8524 1.00168 15.995C1.00168 14.1376 1.73953 12.3563 3.05291 11.0429L12.2429 1.85293C13.181 0.914836 14.4533 0.387817 15.78 0.387817C17.1067 0.387817 18.379 0.914836 19.3171 1.85293C20.2552 2.79103 20.7822 4.06337 20.7822 5.39004C20.7822 6.71671 20.2552 7.98905 19.3171 8.92715L10.1171 18.1171C9.55431 18.68 8.79096 18.9962 7.99502 18.9962C7.19907 18.9962 6.43573 18.68 5.87291 18.1171C5.31009 17.5543 4.9939 16.791 4.9939 15.995C4.9939 15.1991 5.31009 14.4358 5.87291 13.8729L14.3633 5.39252C14.7541 5.00222 15.3872 5.0026 15.7775 5.39335C16.1678 5.78411 16.1675 6.41727 15.7767 6.80756L7.28712 15.2871C7.09964 15.4749 6.9939 15.7297 6.9939 15.995C6.9939 16.2606 7.09938 16.5152 7.28712 16.7029C7.47487 16.8907 7.7295 16.9962 7.99502 16.9962C8.26053 16.9962 8.51516 16.8907 8.70291 16.7029L17.9029 7.51294C18.4657 6.94995 18.7822 6.1861 18.7822 5.39004C18.7822 4.5938 18.4659 3.83017 17.9029 3.26715C17.3399 2.70412 16.5763 2.38782 15.78 2.38782Z" fill="#2D3648"/>
</svg>
