<svg width="24" height="24" viewBox="0 0 24 24" fill="none" xmlns="http://www.w3.org/2000/svg">
<g clip-path="url(#clip0_3_2304)">
<path fill-rule="evenodd" clip-rule="evenodd" d="M1.70711 0.292893C1.31658 -0.0976311 0.683417 -0.0976311 0.292893 0.292893C-0.0976311 0.683417 -0.0976311 1.31658 0.292893 1.70711L8 9.41421V12C8.0007 12.7906 8.23567 13.5642 8.67524 14.2213C9.11481 14.8785 9.73927 15.3906 10.4697 15.6931C11.2002 15.9955 12.0039 16.0747 12.7794 15.9207C13.2224 15.8327 13.6448 15.6708 14.0298 15.4441L15.5059 16.9202C14.8218 17.4128 14.0382 17.7581 13.2047 17.929C12.9033 17.9908 12.5989 18.029 12.2942 18.044C12.2012 18.0154 12.1024 18 12 18C11.8976 18 11.7988 18.0154 11.7057 18.044C11.0241 18.0106 10.3495 17.8609 9.71177 17.5978C8.60645 17.1419 7.66257 16.3661 7.0012 15.37C6.33984 14.3739 5.99117 13.2029 5.99992 12.0073L5.99994 12V10C5.99994 9.44771 5.55223 9 4.99994 9C4.44766 9 3.99994 9.44771 3.99994 10V11.9965C3.98904 13.5893 4.4539 15.1492 5.33502 16.4763C6.21684 17.8044 7.47535 18.8388 8.94911 19.4467C9.60927 19.719 10.2991 19.9002 11 19.9885V22H8C7.44772 22 7 22.4477 7 23C7 23.5523 7.44772 24 8 24H16C16.5523 24 17 23.5523 17 23C17 22.4477 16.5523 22 16 22H13V19.9884C13.2028 19.9629 13.4051 19.9295 13.6064 19.8882C14.8245 19.6385 15.9627 19.1094 16.934 18.3483L22.2929 23.7071C22.6834 24.0976 23.3166 24.0976 23.7071 23.7071C24.0976 23.3166 24.0976 22.6834 23.7071 22.2929L17.869 16.4548C17.8241 16.3761 17.7677 16.3022 17.6998 16.2357C17.637 16.1742 17.5681 16.1226 17.4952 16.0809L1.70711 0.292893ZM12.5156 13.9298L10 11.4142V11.9995C10.0004 12.3947 10.1179 12.7809 10.3376 13.1093C10.5574 13.4379 10.8696 13.694 11.2349 13.8452C11.6001 13.9964 12.002 14.0361 12.3897 13.959C12.432 13.9506 12.474 13.9409 12.5156 13.9298Z" fill="#2D3648"/>
<path d="M18.9999 9C19.5522 9 19.9999 9.44771 19.9999 10V12C19.9995 12.4714 19.9575 12.9426 19.8742 13.4066C19.7767 13.9502 19.257 14.3118 18.7134 14.2143C18.1698 14.1168 17.8081 13.597 17.9057 13.0534C17.9681 12.7054 17.9996 12.3526 17.9999 11.9991V10C17.9999 9.44771 18.4477 9 18.9999 9Z" fill="#2D3648"/>
<path d="M12 1.49012e-08C9.79086 1.49012e-08 8 1.79086 8 4C8 4.55228 8.44771 5 9 5C9.55229 5 10 4.55228 10 4C10 2.89543 10.8954 2 12 2C13.1046 2 14 2.89543 14 4V9C14 9.55229 14.4477 10 15 10C15.5523 10 16 9.55229 16 9V4C16 1.79086 14.2091 1.49012e-08 12 1.49012e-08Z" fill="#2D3648"/>
</g>
<defs>
<clipPath id="clip0_3_2304">
<rect width="24" height="24" fill="white"/>
</clipPath>
</defs>
</svg>
