<svg width="24" height="24" viewBox="0 0 24 24" fill="none" xmlns="http://www.w3.org/2000/svg">
<path fill-rule="evenodd" clip-rule="evenodd" d="M12.707 1.98283C12.5193 1.79519 12.2648 1.68982 11.9994 1.68994C11.7341 1.69006 11.4796 1.79565 11.2922 1.98346L5.64301 7.6426C4.38408 8.90095 3.52594 10.505 3.17825 12.2507C2.83051 13.9967 3.00839 15.8066 3.68941 17.4514C4.37042 19.0963 5.52397 20.5023 7.00414 21.4915C8.48431 22.4807 10.2246 23.0086 12.0049 23.0086C13.7852 23.0086 15.5255 22.4807 17.0056 21.4915C18.4858 20.5023 19.6394 19.0963 20.3204 17.4514C21.0014 15.8066 21.1793 13.9967 20.8315 12.2507C20.4838 10.5048 19.6261 8.90124 18.367 7.64284L12.707 1.98283ZM12.0005 4.10478L16.9528 9.05705C17.9322 10.0358 18.5996 11.2833 18.87 12.6413C19.1405 13.9993 19.0022 15.407 18.4725 16.6864C17.9428 17.9657 17.0456 19.0592 15.8944 19.8286C14.7431 20.598 13.3896 21.0086 12.0049 21.0086C10.6202 21.0086 9.26666 20.598 8.11542 19.8286C6.96417 19.0592 6.06697 17.9657 5.53729 16.6864C5.00761 15.407 4.86926 13.9993 5.13973 12.6413C5.41019 11.2833 6.07733 10.0361 7.05676 9.05728L12.0005 4.10478Z" fill="#2D3648"/>
</svg>
