<svg width="24" height="24" viewBox="0 0 24 24" fill="none" xmlns="http://www.w3.org/2000/svg">
<path d="M10.229 4.19968C11.547 3.90145 12.9192 3.94198 14.2173 4.31747C15.5155 4.69297 16.6974 5.3912 17.6527 6.347C17.6622 6.35649 17.6719 6.36578 17.6817 6.37488L20.5257 9.00006H17C16.4477 9.00006 16 9.44778 16 10.0001C16 10.5523 16.4477 11.0001 17 11.0001H23C23.5523 11.0001 24 10.5523 24 10.0001V4.00006C24 3.44778 23.5523 3.00006 23 3.00006C22.4477 3.00006 22 3.44778 22 4.00006V7.63916L19.0527 4.91856C17.8611 3.73128 16.3892 2.86369 14.7731 2.39623C13.1504 1.92686 11.4352 1.8762 9.78761 2.24899C8.14003 2.62177 6.61374 3.40585 5.35115 4.52806C4.08855 5.65026 3.13081 7.07402 2.56729 8.66648C2.38305 9.18713 2.65577 9.75855 3.17641 9.94279C3.69706 10.127 4.26849 9.85432 4.45273 9.33367C4.90354 8.0597 5.66973 6.9207 6.67981 6.02293C7.68988 5.12517 8.91092 4.49791 10.229 4.19968Z" fill="#2D3648"/>
<path d="M1 13.0001C0.447715 13.0001 0 13.4478 0 14.0001V20.0001C0 20.5523 0.447715 21.0001 1 21.0001C1.55228 21.0001 2 20.5523 2 20.0001V16.361L4.94732 19.0816C6.13892 20.2689 7.61085 21.1365 9.22695 21.6039C10.8497 22.0733 12.5648 22.1239 14.2124 21.7511C15.86 21.3784 17.3863 20.5943 18.6489 19.4721C19.9115 18.3499 20.8692 16.9261 21.4327 15.3337C21.617 14.813 21.3442 14.2416 20.8236 14.0573C20.3029 13.8731 19.7315 14.1458 19.5473 14.6665C19.0965 15.9404 18.3303 17.0794 17.3202 17.9772C16.3101 18.875 15.0891 19.5022 13.771 19.8005C12.453 20.0987 11.0808 20.0582 9.78267 19.6827C8.4845 19.3072 7.30262 18.6089 6.34728 17.6531C6.3378 17.6436 6.32813 17.6344 6.31828 17.6253L3.47432 15.0001H7C7.55228 15.0001 8 14.5523 8 14.0001C8 13.4478 7.55228 13.0001 7 13.0001H1Z" fill="#2D3648"/>
</svg>
