<svg width="24" height="24" viewBox="0 0 24 24" fill="none" xmlns="http://www.w3.org/2000/svg">
<g clip-path="url(#clip0_3_2083)">
<circle cx="12" cy="12" r="12" fill="#1A202C"/>
<path d="M11.9957 17.1392C11.23 17.1392 10.5489 17.0149 9.95233 16.7663C9.35905 16.5144 8.89338 16.1714 8.55531 15.7372C8.21724 15.303 8.04821 14.8108 8.04821 14.2606C8.04821 13.8364 8.14432 13.4469 8.33656 13.0923C8.53211 12.7344 8.79726 12.4377 9.13201 12.2024C9.46677 11.9638 9.84129 11.8113 10.2556 11.745V11.6754C9.71203 11.566 9.27122 11.3025 8.93315 10.8849C8.59508 10.464 8.42605 9.97512 8.42605 9.4183C8.42605 8.89131 8.58017 8.42233 8.88841 8.01134C9.19664 7.59704 9.61923 7.27223 10.1562 7.03691C10.6964 6.79827 11.3096 6.67896 11.9957 6.67896C12.6817 6.67896 13.2932 6.79827 13.8302 7.03691C14.3704 7.27555 14.7947 7.60201 15.1029 8.01631C15.4111 8.4273 15.5669 8.89463 15.5702 9.4183C15.5669 9.97843 15.3946 10.4673 15.0532 10.8849C14.7118 11.3025 14.2743 11.566 13.7407 11.6754V11.745C14.1483 11.8113 14.5179 11.9638 14.8493 12.2024C15.1841 12.4377 15.4492 12.7344 15.6448 13.0923C15.8437 13.4469 15.9448 13.8364 15.9481 14.2606C15.9448 14.8108 15.7741 15.303 15.436 15.7372C15.0979 16.1714 14.6306 16.5144 14.034 16.7663C13.4407 17.0149 12.7613 17.1392 11.9957 17.1392ZM11.9957 15.5582C12.337 15.5582 12.6353 15.4969 12.8905 15.3743C13.1457 15.2483 13.3446 15.076 13.4871 14.8572C13.633 14.6352 13.7059 14.38 13.7059 14.0916C13.7059 13.7966 13.6313 13.5364 13.4822 13.3111C13.333 13.0824 13.1308 12.9034 12.8756 12.7741C12.6204 12.6415 12.3271 12.5753 11.9957 12.5753C11.6675 12.5753 11.3742 12.6415 11.1157 12.7741C10.8572 12.9034 10.6533 13.0824 10.5042 13.3111C10.3583 13.5364 10.2854 13.7966 10.2854 14.0916C10.2854 14.38 10.3567 14.6352 10.4992 14.8572C10.6417 15.076 10.8422 15.2483 11.1008 15.3743C11.3593 15.4969 11.6576 15.5582 11.9957 15.5582ZM11.9957 11.0092C12.2807 11.0092 12.5342 10.9512 12.7563 10.8352C12.9784 10.7192 13.1524 10.5585 13.2783 10.353C13.4043 10.1475 13.4672 9.91049 13.4672 9.64202C13.4672 9.37687 13.4043 9.14486 13.2783 8.946C13.1524 8.74382 12.98 8.58639 12.7613 8.4737C12.5425 8.3577 12.2873 8.29969 11.9957 8.29969C11.7073 8.29969 11.4521 8.3577 11.23 8.4737C11.008 8.58639 10.834 8.74382 10.708 8.946C10.5854 9.14486 10.5241 9.37687 10.5241 9.64202C10.5241 9.91049 10.587 10.1475 10.713 10.353C10.8389 10.5585 11.0129 10.7192 11.235 10.8352C11.4571 10.9512 11.7106 11.0092 11.9957 11.0092Z" fill="white"/>
</g>
<defs>
<clipPath id="clip0_3_2083">
<rect width="24" height="24" fill="white"/>
</clipPath>
</defs>
</svg>
