<svg width="24" height="24" viewBox="0 0 24 24" fill="none" xmlns="http://www.w3.org/2000/svg">
<path d="M12 7C12 6.44772 11.5523 6 11 6C10.4477 6 10 6.44772 10 7V11C10 11.5523 10.4477 12 11 12C11.5523 12 12 11.5523 12 11V7Z" fill="#2D3648"/>
<path d="M17 7C17 6.44772 16.5523 6 16 6C15.4477 6 15 6.44772 15 7V11C15 11.5523 15.4477 12 16 12C16.5523 12 17 11.5523 17 11V7Z" fill="#2D3648"/>
<path fill-rule="evenodd" clip-rule="evenodd" d="M3 1C2.44772 1 2 1.44772 2 2V18C2 18.5523 2.44772 19 3 19H7V22C7 22.4045 7.24364 22.7691 7.61732 22.9239C7.99099 23.0787 8.42111 22.9931 8.70711 22.7071L12.4142 19H17C17.2652 19 17.5196 18.8946 17.7071 18.7071L21.7071 14.7071C21.8946 14.5196 22 14.2652 22 14V2C22 1.44772 21.5523 1 21 1H3ZM4 17V3H20V13.5858L16.5858 17H12C11.7348 17 11.4804 17.1054 11.2929 17.2929L9 19.5858V18C9 17.4477 8.55228 17 8 17H4Z" fill="#2D3648"/>
</svg>
