<svg width="24" height="24" viewBox="0 0 24 24" fill="none" xmlns="http://www.w3.org/2000/svg">
<path d="M12.2071 3.29289C11.8166 2.90237 11.1834 2.90237 10.7929 3.29289L6.5 7.58579L4.70711 5.79289C4.31658 5.40237 3.68342 5.40237 3.29289 5.79289C2.90237 6.18342 2.90237 6.81658 3.29289 7.20711L6.5 10.4142L12.2071 4.70711C12.5976 4.31658 12.5976 3.68342 12.2071 3.29289Z" fill="#2D3648"/>
<path d="M15.7071 14.2929C15.3166 13.9024 14.6834 13.9024 14.2929 14.2929C13.9024 14.6834 13.9024 15.3166 14.2929 15.7071L16.0858 17.5L14.2929 19.2929C13.9024 19.6834 13.9024 20.3166 14.2929 20.7071C14.6834 21.0976 15.3166 21.0976 15.7071 20.7071L17.5 18.9142L19.2929 20.7071C19.6834 21.0976 20.3166 21.0976 20.7071 20.7071C21.0976 20.3166 21.0976 19.6834 20.7071 19.2929L18.9142 17.5L20.7071 15.7071C21.0976 15.3166 21.0976 14.6834 20.7071 14.2929C20.3166 13.9024 19.6834 13.9024 19.2929 14.2929L17.5 16.0858L15.7071 14.2929Z" fill="#2D3648"/>
<path d="M20.7071 4.70711C21.0976 4.31658 21.0976 3.68342 20.7071 3.29289C20.3166 2.90237 19.6834 2.90237 19.2929 3.29289L3.29289 19.2929C2.90237 19.6834 2.90237 20.3166 3.29289 20.7071C3.68342 21.0976 4.31658 21.0976 4.70711 20.7071L20.7071 4.70711Z" fill="#2D3648"/>
</svg>
