<svg width="24" height="24" viewBox="0 0 24 24" fill="none" xmlns="http://www.w3.org/2000/svg">
<path d="M10.7161 5.04366C10.8737 4.99551 11.0407 4.98703 11.2023 5.01899C11.364 5.05094 11.5152 5.12233 11.6426 5.22681C11.77 5.3313 11.8696 5.46564 11.9325 5.61789C11.9955 5.77014 12.0198 5.93559 12.0034 6.09952C11.987 6.26346 11.9304 6.4208 11.8385 6.55757C11.7467 6.69434 11.6224 6.80629 11.4769 6.88347C11.3313 6.96066 11.169 7.00068 11.0042 6.99999L11 6.99998H2C1.44772 6.99998 1 7.4477 1 7.99998C1 8.55227 1.44772 8.99998 2 8.99998H10.9982H11V7.99998L10.9958 8.99997L10.9982 8.99998C11.4916 9.00166 11.9779 8.8816 12.4138 8.65042C12.8505 8.41887 13.2232 8.08301 13.4988 7.67271C13.7744 7.26241 13.9443 6.79038 13.9935 6.29857C14.0427 5.80676 13.9696 5.31042 13.7807 4.85366C13.5919 4.39691 13.2931 3.99389 12.9109 3.68044C12.5288 3.36699 12.0751 3.15282 11.5902 3.05696C11.1053 2.9611 10.6043 2.98653 10.1316 3.13099C9.60344 3.2924 9.30612 3.85142 9.46753 4.37959C9.62895 4.90776 10.188 5.20507 10.7161 5.04366Z" fill="#2D3648"/>
<path d="M19.0614 8.06419C19.2973 7.99285 19.5472 7.98075 19.7889 8.02896C20.0306 8.07716 20.2567 8.18419 20.4473 8.34059C20.6378 8.49697 20.7868 8.6979 20.8812 8.9256C20.9756 9.1533 21.0124 9.40074 20.9884 9.64605C20.9644 9.89136 20.8803 10.127 20.7436 10.3321C20.6069 10.5371 20.4217 10.7054 20.2045 10.8219C19.9875 10.9383 19.7452 10.9994 19.4989 11H2C1.44772 11 1 11.4477 1 12C1 12.5523 1.44772 13 2 13H3.49581L3.5 13L3.50419 13H19.5L19.5018 13C20.0769 12.999 20.6429 12.8562 21.1498 12.5844C21.6566 12.3126 22.0886 11.92 22.4077 11.4415C22.7267 10.963 22.9229 10.4132 22.9789 9.84081C23.0349 9.26841 22.949 8.69104 22.7288 8.15975C22.5085 7.62846 22.1608 7.15963 21.7162 6.79472C21.2717 6.42981 20.7441 6.18007 20.1801 6.06758C19.6161 5.9551 19.033 5.98333 18.4825 6.1498C17.932 6.31626 17.431 6.61582 17.0238 7.02198C16.6328 7.41201 16.632 8.04518 17.022 8.43619C17.412 8.82721 18.0452 8.82801 18.4362 8.43798C18.6107 8.26392 18.8254 8.13553 19.0614 8.06419Z" fill="#2D3648"/>
<path d="M15.4138 15.3495C14.9778 15.1183 14.4915 14.9983 13.998 15H2C1.44772 15 1 15.4477 1 16C1 16.5523 1.44772 17 2 17H14L14.0042 17C14.169 16.9993 14.3313 17.0393 14.4769 17.1165C14.6224 17.1937 14.7467 17.3056 14.8385 17.4424C14.9304 17.5792 14.987 17.7365 15.0034 17.9004C15.0198 18.0644 14.9955 18.2298 14.9325 18.3821C14.8696 18.5343 14.77 18.6687 14.6426 18.7732C14.5152 18.8776 14.364 18.949 14.2023 18.981C14.0407 19.0129 13.8737 19.0045 13.7161 18.9563C13.188 18.7949 12.6289 19.0922 12.4675 19.6204C12.3061 20.1486 12.6034 20.7076 13.1316 20.869C13.6043 21.0134 14.1053 21.0389 14.5902 20.943C15.0751 20.8471 15.5288 20.633 15.9109 20.3195C16.2931 20.0061 16.5919 19.6031 16.7807 19.1463C16.9696 18.6895 17.0427 18.1932 16.9935 17.7014C16.9443 17.2096 16.7744 16.7376 16.4988 16.3273C16.2232 15.917 15.8505 15.5811 15.4138 15.3495Z" fill="#2D3648"/>
</svg>
