<svg width="24" height="24" viewBox="0 0 24 24" fill="none" xmlns="http://www.w3.org/2000/svg">
<path fill-rule="evenodd" clip-rule="evenodd" d="M5.63728 5.63693C6.02774 5.24635 6.02764 4.61318 5.63706 4.22272C5.24648 3.83225 4.61331 3.83235 4.22285 4.22293C2.16067 6.28574 1.0022 9.08313 1.0022 11.9999C1.0022 14.9167 2.16067 17.7141 4.22285 19.7769C4.61331 20.1675 5.24648 20.1676 5.63706 19.7771C6.02764 19.3867 6.02774 18.7535 5.63728 18.3629C3.95004 16.6752 3.0022 14.3864 3.0022 11.9999C3.0022 9.61345 3.95004 7.32468 5.63728 5.63693ZM19.7773 4.22293C19.3868 3.83235 18.7536 3.83225 18.3631 4.22272C17.9725 4.61318 17.9724 5.24635 18.3628 5.63693C20.0501 7.32468 20.9979 9.61345 20.9979 11.9999C20.9979 14.3864 20.0501 16.6752 18.3628 18.3629C17.9724 18.7535 17.9725 19.3867 18.3631 19.7771C18.7536 20.1676 19.3868 20.1675 19.7773 19.7769C21.8395 17.7141 22.9979 14.9167 22.9979 11.9999C22.9979 9.08313 21.8395 6.28574 19.7773 4.22293ZM8.46678 8.45743C8.85752 8.06712 8.85787 7.43396 8.46756 7.04322C8.07726 6.65248 7.44409 6.65212 7.05335 7.04243C6.40251 7.69254 5.8862 8.46456 5.53393 9.31435C5.18166 10.1641 5.00034 11.075 5.00034 11.9949C5.00034 12.9148 5.18166 13.8257 5.53393 14.6755C5.8862 15.5253 6.40251 16.2973 7.05335 16.9474C7.44409 17.3377 8.07726 17.3374 8.46756 16.9466C8.85787 16.5559 8.85752 15.9227 8.46678 15.5324C8.00189 15.0681 7.6331 14.5166 7.38148 13.9096C7.12986 13.3026 7.00034 12.652 7.00034 11.9949C7.00034 11.3379 7.12986 10.6872 7.38148 10.0802C7.6331 9.47324 8.00189 8.9218 8.46678 8.45743ZM16.9468 7.05243C16.556 6.66213 15.9229 6.66248 15.5326 7.05322C15.1423 7.44396 15.1426 8.07713 15.5333 8.46743C15.9982 8.9318 16.367 9.48324 16.6186 10.0902C16.8703 10.6972 16.9998 11.3479 16.9998 12.0049C16.9998 12.662 16.8703 13.3126 16.6186 13.9196C16.367 14.5266 15.9982 15.0781 15.5333 15.5424C15.1426 15.9327 15.1423 16.5659 15.5326 16.9566C15.9229 17.3474 16.556 17.3477 16.9468 16.9574C17.5976 16.3073 18.1139 15.5353 18.4662 14.6855C18.8185 13.8357 18.9998 12.9248 18.9998 12.0049C18.9998 11.085 18.8185 10.1741 18.4662 9.32435C18.1139 8.47456 17.5976 7.70254 16.9468 7.05243ZM11 11.9999C11 11.4477 11.4477 10.9999 12 10.9999C12.5523 10.9999 13 11.4477 13 11.9999C13 12.5522 12.5523 12.9999 12 12.9999C11.4477 12.9999 11 12.5522 11 11.9999ZM12 8.99994C10.3431 8.99994 9 10.3431 9 11.9999C9 13.6568 10.3431 14.9999 12 14.9999C13.6569 14.9999 15 13.6568 15 11.9999C15 10.3431 13.6569 8.99994 12 8.99994Z" fill="#2D3648"/>
</svg>
