<svg width="24" height="24" viewBox="0 0 24 24" fill="none" xmlns="http://www.w3.org/2000/svg">
<path d="M13 2C13 1.44772 12.5523 1 12 1C11.4477 1 11 1.44772 11 2V12C11 12.5523 11.4477 13 12 13C12.5523 13 13 12.5523 13 12V2Z" fill="#2D3648"/>
<path d="M6.33734 7.34701C6.7278 6.95642 6.7277 6.32325 6.33711 5.93279C5.94653 5.54233 5.31336 5.54244 4.9229 5.93302C3.5247 7.33168 2.57262 9.11351 2.18703 11.0532C1.80144 12.993 1.99967 15.0035 2.75664 16.8305C3.51361 18.6576 4.79534 20.2192 6.43976 21.3179C8.08418 22.4165 10.0174 23.0029 11.9951 23.0029C13.9728 23.0029 15.9061 22.4165 17.5505 21.3179C19.1949 20.2192 20.4766 18.6576 21.2336 16.8305C21.9906 15.0035 22.1888 12.993 21.8032 11.0532C21.4176 9.11351 20.4655 7.33168 19.0673 5.93302C18.6769 5.54244 18.0437 5.54233 17.6531 5.93279C17.2625 6.32325 17.2624 6.95642 17.6529 7.34701C18.7715 8.46593 19.5331 9.8914 19.8416 11.4432C20.1501 12.995 19.9915 14.6034 19.3859 16.065C18.7803 17.5267 17.7549 18.7759 16.4394 19.6549C15.1239 20.5338 13.5773 21.0029 11.9951 21.0029C10.413 21.0029 8.86637 20.5338 7.55083 19.6549C6.23529 18.7759 5.20991 17.5267 4.60434 16.065C3.99876 14.6034 3.84018 12.995 4.14865 11.4432C4.45712 9.8914 5.21879 8.46593 6.33734 7.34701Z" fill="#2D3648"/>
</svg>
