<svg width="24" height="24" viewBox="0 0 24 24" fill="none" xmlns="http://www.w3.org/2000/svg">
<path fill-rule="evenodd" clip-rule="evenodd" d="M12.557 1.16939C12.3978 1.06242 12.2062 1 12 1C11.7938 1 11.6021 1.06242 11.443 1.16939L1.47396 7.64923C1.3694 7.71381 1.27522 7.79877 1.19775 7.903C1.18793 7.91619 1.17845 7.92962 1.1693 7.94326C1.0523 8.11769 0.997429 8.31624 0.999994 8.51225V15.4878C0.997429 15.6838 1.0523 15.8823 1.1693 16.0567C1.17845 16.0704 1.18793 16.0838 1.19775 16.097C1.27522 16.2012 1.3694 16.2862 1.47396 16.3508L11.443 22.8306C11.6022 22.9376 11.7938 23 12 23C12.2062 23 12.3978 22.9376 12.557 22.8306L22.526 16.3508C22.6275 16.2881 22.7192 16.2062 22.7954 16.1062C22.8035 16.0954 22.8115 16.0845 22.8192 16.0735L22.8325 16.0541C22.9482 15.8803 23.0025 15.6828 23 15.4878V8.51222C23.0025 8.31722 22.9482 8.11971 22.8325 7.94594L22.8192 7.92654C22.8115 7.91549 22.8035 7.90459 22.7954 7.89385C22.7192 7.7938 22.6275 7.71192 22.526 7.64924L12.557 1.16939ZM11 3.84269L3.78766 8.53071L6.99999 10.7793L11 7.97934V3.84269ZM13 7.97934V3.84269L20.2123 8.53071L17 10.7793L13 7.97934ZM18.7438 12L21 10.4207V13.5793L18.7438 12ZM12 9.72066L8.74379 12L12 14.2793L15.2562 12L12 9.72066ZM2.99999 10.4207L5.2562 12L2.99999 13.5793V10.4207ZM6.99999 13.2207L3.78766 15.4693L11 20.1573V16.0207L6.99999 13.2207ZM20.2123 15.4693L17 13.2207L13 16.0207V20.1573L20.2123 15.4693Z" fill="#2D3648"/>
</svg>
