<svg width="24" height="24" viewBox="0 0 24 24" fill="none" xmlns="http://www.w3.org/2000/svg">
<g clip-path="url(#clip0_3_2260)">
<path fill-rule="evenodd" clip-rule="evenodd" d="M1.70711 0.292893C1.31658 -0.0976311 0.683417 -0.0976311 0.292893 0.292893C-0.0976311 0.683417 -0.0976311 1.31658 0.292893 1.70711L4.56848 5.98269C2.7597 7.53967 1.25036 9.4185 0.118844 11.5272C-0.0347894 11.8135 -0.0397387 12.1566 0.105573 12.4472L1 12C0.105573 12.4472 0.10637 12.4488 0.10637 12.4488L0.107539 12.4511L0.11099 12.458L0.122338 12.4802C0.131875 12.4987 0.145357 12.5247 0.162754 12.5576C0.19754 12.6233 0.248024 12.7168 0.313971 12.834C0.445792 13.0684 0.63985 13.3985 0.894336 13.7925C1.40207 14.5787 2.15683 15.6294 3.14546 16.6839C5.10448 18.7736 8.10049 21 12 21L12.0163 20.9999C14.0848 20.9661 16.0962 20.3536 17.8261 19.2403L22.2929 23.7071C22.6834 24.0976 23.3166 24.0976 23.7071 23.7071C24.0976 23.3166 24.0976 22.6834 23.7071 22.2929L1.70711 0.292893ZM2.14257 12.0032C3.14935 10.2582 4.45031 8.70138 5.9871 7.40132L8.53604 9.95026C8.43652 10.109 8.34805 10.2749 8.27145 10.4469C8.05282 10.9375 7.93527 11.4672 7.92579 12.0043C7.91631 12.5414 8.01511 13.0748 8.21629 13.5729C8.41747 14.071 8.71691 14.5234 9.09674 14.9033C9.47657 15.2831 9.92902 15.5825 10.4271 15.7837C10.9252 15.9849 11.4586 16.0837 11.9957 16.0742C12.5328 16.0647 13.0625 15.9472 13.5531 15.7286C13.7251 15.652 13.891 15.5635 14.0497 15.464L16.3714 17.7856C15.0437 18.5524 13.5373 18.9733 11.9918 19C8.89512 18.9969 6.39395 17.2248 4.60454 15.3161C3.71817 14.3706 3.03543 13.4213 2.57441 12.7075C2.39592 12.4311 2.25165 12.1916 2.14257 12.0032ZM9.92548 12.0396C9.92907 11.836 9.96372 11.6345 10.0279 11.4421L12.5579 13.9721C12.3655 14.0363 12.164 14.0709 11.9604 14.0745C11.6919 14.0793 11.4252 14.0299 11.1761 13.9293C10.9271 13.8287 10.7009 13.679 10.511 13.4891C10.321 13.2991 10.1713 13.0729 10.0707 12.8239C9.97014 12.5748 9.92074 12.3081 9.92548 12.0396Z" fill="#2D3648"/>
<path d="M21.845 12.0201C19.0217 7.36572 15.2656 4.23656 10.1488 5.1722C9.60552 5.27154 9.08458 4.91166 8.98524 4.36839C8.88589 3.82511 9.24577 3.30417 9.78905 3.20482C16.3429 2.0064 20.8394 6.3253 23.8175 11.424C24.0279 11.723 24.0659 12.1269 23.8818 12.4714C23.2419 13.6684 22.4789 14.7953 21.605 15.8339C21.2494 16.2564 20.6186 16.3108 20.196 15.9552C19.7734 15.5996 19.7191 14.9688 20.0747 14.5462C20.7382 13.7576 21.3306 12.9123 21.845 12.0201Z" fill="#2D3648"/>
</g>
<defs>
<clipPath id="clip0_3_2260">
<rect width="24" height="24" fill="white"/>
</clipPath>
</defs>
</svg>
