<svg width="24" height="24" viewBox="0 0 24 24" fill="none" xmlns="http://www.w3.org/2000/svg">
<path fill-rule="evenodd" clip-rule="evenodd" d="M12 1.00195C11.4742 1.00195 10.9577 1.14014 10.5021 1.40264L3.50386 5.40166L3.5 5.40388C3.04439 5.66692 2.66597 6.04515 2.40269 6.50062C2.13941 6.95609 2.00054 7.47279 2 7.99888V16.0009C2.00054 16.527 2.13941 17.0437 2.40269 17.4992C2.66597 17.9547 3.04439 18.3329 3.5 18.5959L3.50386 18.5981L10.5 22.5959L10.5019 22.597C10.9575 22.8596 11.4741 22.9979 12 22.9979C12.5259 22.9979 13.0426 22.8596 13.4982 22.597L13.5 22.5959L20.4961 18.5981L20.5 18.5959C20.9556 18.3329 21.334 17.9547 21.5973 17.4992C21.8606 17.0437 21.9995 16.527 22 16.0009V7.99888C21.9995 7.47279 21.8606 6.95609 21.5973 6.50062C21.334 6.04515 20.9556 5.66692 20.5 5.40387L13.5 1.40388L13.4979 1.40267C13.0424 1.14015 12.5258 1.00195 12 1.00195ZM11.5 3.13593C11.652 3.04816 11.8245 3.00195 12 3.00195C12.1755 3.00195 12.348 3.04816 12.5 3.13593L12.5039 3.13815L19.5 7.13593L19.5016 7.13685C19.6527 7.22449 19.7783 7.35021 19.8658 7.50151C19.9535 7.65333 19.9998 7.82556 20 8.00093V15.9989C19.9998 16.1742 19.9535 16.3465 19.8658 16.4983C19.7783 16.6496 19.6527 16.7753 19.5016 16.863L19.5 16.8639L12.5039 20.8617L12.5 20.8639C12.348 20.9516 12.1755 20.9979 12 20.9979C11.8245 20.9979 11.652 20.9516 11.5 20.8639L4.5 16.8639L4.49842 16.863C4.34726 16.7753 4.22169 16.6496 4.13423 16.4983C4.04654 16.3466 4.00026 16.1745 4 15.9993V8.0005C4.00026 7.82528 4.04654 7.65321 4.13423 7.50151C4.22169 7.35021 4.34726 7.22448 4.49842 7.13684L4.5 7.13593L11.4961 3.13815L11.5 3.13593Z" fill="#2D3648"/>
</svg>
