<svg width="24" height="24" viewBox="0 0 24 24" fill="none" xmlns="http://www.w3.org/2000/svg">
<path fill-rule="evenodd" clip-rule="evenodd" d="M13.9923 2.12409C14.0474 1.68359 13.8054 1.25952 13.3982 1.08275C12.991 0.905986 12.516 1.01884 12.2318 1.35987L2.23179 13.3599C1.98339 13.658 1.92984 14.0728 2.09442 14.4242C2.259 14.7756 2.61199 15.0001 3.00001 15.0001H10.8672L10.0077 21.876C9.95267 22.3165 10.1946 22.7406 10.6018 22.9174C11.009 23.0941 11.484 22.9813 11.7682 22.6402L21.7682 10.6402C22.0166 10.3422 22.0702 9.92729 21.9056 9.5759C21.741 9.22452 21.388 9.00006 21 9.00006H13.1328L13.9923 2.12409ZM12 13.0001H5.13505L11.5847 5.26051L11.0077 9.87602C10.9722 10.1606 11.0605 10.4468 11.2503 10.6619C11.4402 10.8769 11.7132 11.0001 12 11.0001H18.865L12.4154 18.7396L12.9923 14.1241C13.0279 13.8395 12.9395 13.5533 12.7497 13.3383C12.5599 13.1232 12.2868 13.0001 12 13.0001Z" fill="#2D3648"/>
</svg>
