<svg width="24" height="24" viewBox="0 0 24 24" fill="none" xmlns="http://www.w3.org/2000/svg">
<path fill-rule="evenodd" clip-rule="evenodd" d="M12 1C8.68629 1 6 3.68629 6 7V10H5C3.34315 10 2 11.3431 2 13V20C2 21.6569 3.34315 23 5 23H19C20.6569 23 22 21.6569 22 20V13C22 11.3431 20.6569 10 19 10H8V7C8 4.79086 9.79086 3 12 3C14.2091 3 16 4.79086 16 7C16 7.55228 16.4477 8 17 8C17.5523 8 18 7.55228 18 7C18 3.68629 15.3137 1 12 1ZM4 13C4 12.4477 4.44772 12 5 12H19C19.5523 12 20 12.4477 20 13V20C20 20.5523 19.5523 21 19 21H5C4.44772 21 4 20.5523 4 20V13Z" fill="#2D3648"/>
</svg>
