<svg width="24" height="24" viewBox="0 0 24 24" fill="none" xmlns="http://www.w3.org/2000/svg">
<path fill-rule="evenodd" clip-rule="evenodd" d="M11.0429 3.04293C12.3563 1.72955 14.1376 0.991699 15.995 0.991699C17.8524 0.991699 19.6337 1.72955 20.9471 3.04293C22.2605 4.35631 22.9983 6.13764 22.9983 7.99504C22.9983 9.85208 22.2608 11.6331 20.9479 12.9464L20.9471 12.9471L18.2938 15.6083C18.2409 15.6772 18.1793 15.739 18.1106 15.792L14.2082 19.7061C14.0205 19.8943 13.7657 20 13.5 20H5.41424L2.70711 22.7072C2.31658 23.0977 1.68342 23.0977 1.29289 22.7072C0.902369 22.3166 0.902369 21.6835 1.29289 21.293L4 18.5858V10.5C4 10.2348 4.10536 9.98047 4.29289 9.79293L11.0429 3.04293ZM17.0731 14.0001L19.5318 11.534L19.5329 11.5329C20.4712 10.5946 20.9983 9.322 20.9983 7.99504C20.9983 6.66807 20.4712 5.39545 19.5329 4.45714C18.5946 3.51884 17.322 2.9917 15.995 2.9917C14.668 2.9917 13.3954 3.51884 12.4571 4.45714L6 10.9142V16.5858L15.2929 7.29295C15.6834 6.90243 16.3166 6.90243 16.7071 7.29295C17.0976 7.68348 17.0976 8.31664 16.7071 8.70717L11.4142 14.0001H17.0731ZM9.41421 16.0001H15.079L13.0849 18H7.41424L9.41421 16.0001Z" fill="#2D3648"/>
</svg>
