<svg width="24" height="24" viewBox="0 0 24 24" fill="none" xmlns="http://www.w3.org/2000/svg">
<g clip-path="url(#clip0_3_2178)">
<path fill-rule="evenodd" clip-rule="evenodd" d="M1.70711 0.292893C1.31658 -0.0976311 0.683417 -0.0976311 0.292893 0.292893C-0.0976311 0.683417 -0.0976311 1.31658 0.292893 1.70711L3.11679 4.531C3.04167 4.67238 3 4.83266 3 5.00001V12C3 15.4464 5.28175 18.2003 7.3415 20.0026C8.39238 20.9221 9.43854 21.6408 10.22 22.1293C10.6118 22.3741 10.9397 22.5627 11.1719 22.6913C11.2881 22.7556 11.3806 22.805 11.4453 22.839C11.4777 22.856 11.5032 22.8692 11.5212 22.8784L11.5427 22.8894L11.5492 22.8926L11.5514 22.8937C11.5517 22.8939 11.5528 22.8944 12 22L11.5528 22.8944C11.8412 23.0387 12.1815 23.0349 12.4667 22.8844C14.3771 21.8764 16.1212 20.5844 17.6402 19.0544L22.2929 23.7071C22.6834 24.0976 23.3166 24.0976 23.7071 23.7071C24.0976 23.3166 24.0976 22.6834 23.7071 22.2929L18.3317 16.9175C18.3291 16.9148 18.3264 16.9122 18.3238 16.9096L5.45281 4.0386C5.44284 4.02819 5.43267 4.01801 5.42229 4.00808L1.70711 0.292893ZM5 6.41421V12C5 14.5536 6.71825 16.7997 8.6585 18.4974C9.60762 19.3279 10.5615 19.9842 11.28 20.4333C11.5626 20.6099 11.8071 20.7534 11.9985 20.8619C13.5501 19.9879 14.9727 18.9035 16.2259 17.6401L5 6.41421Z" fill="#2D3648"/>
<path d="M11.6503 1.06318C11.8763 0.978771 12.1253 0.978944 12.3512 1.06367L20.3512 4.06367C20.7415 4.21003 21.0001 4.58316 21.0001 5V12.0066C20.995 12.7832 20.8754 13.5548 20.6451 14.2964C20.4814 14.8239 19.9211 15.1188 19.3936 14.9551C18.8662 14.7913 18.5713 14.231 18.735 13.7036C18.9067 13.1507 18.996 12.5755 19.0001 11.9966V5.693L11.9993 3.06772L9.18991 4.11682C8.67252 4.31002 8.09647 4.04721 7.90327 3.52982C7.71007 3.01243 7.97288 2.43639 8.49026 2.24318L11.6503 1.06318Z" fill="#2D3648"/>
</g>
<defs>
<clipPath id="clip0_3_2178">
<rect width="24" height="24" fill="white"/>
</clipPath>
</defs>
</svg>
