<svg width="24" height="24" viewBox="0 0 24 24" fill="none" xmlns="http://www.w3.org/2000/svg">
<path fill-rule="evenodd" clip-rule="evenodd" d="M6 2C4.93913 2 3.92172 2.42143 3.17157 3.17157C2.42143 3.92172 2 4.93913 2 6C2 7.06087 2.42143 8.07828 3.17157 8.82843C3.92172 9.57857 4.93913 10 6 10H8V14H6C4.93913 14 3.92172 14.4214 3.17157 15.1716C2.42143 15.9217 2 16.9391 2 18C2 19.0609 2.42143 20.0783 3.17157 20.8284C3.92172 21.5786 4.93913 22 6 22C7.06087 22 8.07828 21.5786 8.82843 20.8284C9.57857 20.0783 10 19.0609 10 18V16H14V18C14 19.0609 14.4214 20.0783 15.1716 20.8284C15.9217 21.5786 16.9391 22 18 22C19.0609 22 20.0783 21.5786 20.8284 20.8284C21.5786 20.0783 22 19.0609 22 18C22 16.9391 21.5786 15.9217 20.8284 15.1716C20.0783 14.4214 19.0609 14 18 14H16V10H18C19.0609 10 20.0783 9.57857 20.8284 8.82843C21.5786 8.07828 22 7.06087 22 6C22 4.93913 21.5786 3.92172 20.8284 3.17157C20.0783 2.42143 19.0609 2 18 2C16.9391 2 15.9217 2.42143 15.1716 3.17157C14.4214 3.92172 14 4.93913 14 6V8H10V6C10 4.93913 9.57857 3.92172 8.82843 3.17157C8.07828 2.42143 7.06087 2 6 2ZM8 6V8H6C5.46957 8 4.96086 7.78929 4.58579 7.41421C4.21071 7.03914 4 6.53043 4 6C4 5.46957 4.21071 4.96086 4.58579 4.58579C4.96086 4.21071 5.46957 4 6 4C6.53043 4 7.03914 4.21071 7.41421 4.58579C7.78929 4.96086 8 5.46957 8 6ZM10 14V10H14V14H10ZM6 16H8V18C8 18.5304 7.78929 19.0391 7.41421 19.4142C7.03914 19.7893 6.53043 20 6 20C5.46957 20 4.96086 19.7893 4.58579 19.4142C4.21071 19.0391 4 18.5304 4 18C4 17.4696 4.21071 16.9609 4.58579 16.5858C4.96086 16.2107 5.46957 16 6 16ZM16 18V16H18C18.5304 16 19.0391 16.2107 19.4142 16.5858C19.7893 16.9609 20 17.4696 20 18C20 18.5304 19.7893 19.0391 19.4142 19.4142C19.0391 19.7893 18.5304 20 18 20C17.4696 20 16.9609 19.7893 16.5858 19.4142C16.2107 19.0391 16 18.5304 16 18ZM18 8H16V6C16 5.46957 16.2107 4.96086 16.5858 4.58579C16.9609 4.21071 17.4696 4 18 4C18.5304 4 19.0391 4.21071 19.4142 4.58579C19.7893 4.96086 20 5.46957 20 6C20 6.53043 19.7893 7.03914 19.4142 7.41421C19.0391 7.78929 18.5304 8 18 8Z" fill="#2D3648"/>
</svg>
