<svg width="24" height="24" viewBox="0 0 24 24" fill="none" xmlns="http://www.w3.org/2000/svg">
<path fill-rule="evenodd" clip-rule="evenodd" d="M1 12C1 5.92487 5.92487 1 12 1C18.0751 1 23 5.92487 23 12C23 18.0751 18.0751 23 12 23C5.92487 23 1 18.0751 1 12ZM4.96807 6.38235C3.73646 7.92202 3 9.875 3 12C3 14.125 3.73646 16.078 4.96807 17.6176L7.82837 14.7573C7.30487 13.9669 7 13.0191 7 12C7 10.9809 7.30487 10.0331 7.82837 9.24265L4.96807 6.38235ZM9.24257 16.1716L6.38228 19.0319C7.92195 20.2635 9.87497 21 12 21C14.125 21 16.0781 20.2635 17.6177 19.0319L14.7574 16.1716C13.967 16.6951 13.0191 17 12 17C10.9809 17 10.033 16.6951 9.24257 16.1716ZM21 12C21 14.125 20.2635 16.078 19.0319 17.6176L16.1716 14.7573C16.6951 13.9669 17 13.0191 17 12C17 10.9809 16.6951 10.0331 16.1716 9.24266L19.0319 6.38236C20.2635 7.92202 21 9.87501 21 12ZM17.6177 4.96814L14.7574 7.82843C13.967 7.30489 13.0191 7 12 7C10.9809 7 10.033 7.30489 9.24257 7.82842L6.38228 4.96813C7.92195 3.73649 9.87497 3 12 3C14.125 3 16.0781 3.73649 17.6177 4.96814ZM12 9C10.3431 9 9 10.3431 9 12C9 13.6569 10.3431 15 12 15C13.6569 15 15 13.6569 15 12C15 10.3431 13.6569 9 12 9Z" fill="#2D3648"/>
</svg>
