<svg width="24" height="24" viewBox="0 0 24 24" fill="none" xmlns="http://www.w3.org/2000/svg">
<path d="M15.7071 3.29289C15.3166 2.90237 14.6834 2.90237 14.2929 3.29289L9.29289 8.29289C8.90237 8.68342 8.90237 9.31658 9.29289 9.70711C9.68342 10.0976 10.3166 10.0976 10.7071 9.70711L14 6.41421V16C14 16.7956 13.6839 17.5587 13.1213 18.1213C12.5587 18.6839 11.7956 19 11 19H4C3.44772 19 3 19.4477 3 20C3 20.5523 3.44772 21 4 21H11C12.3261 21 13.5979 20.4732 14.5355 19.5355C15.4732 18.5979 16 17.3261 16 16V6.41421L19.2929 9.70711C19.6834 10.0976 20.3166 10.0976 20.7071 9.70711C21.0976 9.31658 21.0976 8.68342 20.7071 8.29289L15.7071 3.29289Z" fill="#2D3648"/>
</svg>
