<svg width="24" height="24" viewBox="0 0 24 24" fill="none" xmlns="http://www.w3.org/2000/svg">
<g clip-path="url(#clip0_3_2121)">
<path fill-rule="evenodd" clip-rule="evenodd" d="M12 1C9.00237 1 6.11236 2.1173 3.8943 4.13372C1.67623 6.15015 0.289372 8.92091 0.00452883 11.905C-0.0222434 12.1854 0.0705417 12.4642 0.260064 12.6727C0.449586 12.8811 0.718259 13 1 13H11V19C11 20.0609 11.4214 21.0783 12.1716 21.8284C12.9217 22.5786 13.9391 23 15 23C16.0609 23 17.0783 22.5786 17.8284 21.8284C18.5786 21.0783 19 20.0609 19 19C19 18.4477 18.5523 18 18 18C17.4477 18 17 18.4477 17 19C17 19.5304 16.7893 20.0391 16.4142 20.4142C16.0391 20.7893 15.5304 21 15 21C14.4696 21 13.9609 20.7893 13.5858 20.4142C13.2107 20.0391 13 19.5304 13 19V13H23C23.2817 13 23.5504 12.8811 23.7399 12.6727C23.9295 12.4642 24.0223 12.1854 23.9955 11.905C23.7106 8.92091 22.3238 6.15015 20.1057 4.13372C17.8876 2.1173 14.9976 1 12 1ZM5.23964 5.6136C7.08957 3.93185 9.4999 3 12 3C14.5001 3 16.9104 3.93185 18.7604 5.6136C20.3357 7.04572 21.4083 8.93407 21.8387 11H2.16128C2.5917 8.93407 3.66431 7.04572 5.23964 5.6136Z" fill="#2D3648"/>
</g>
<defs>
<clipPath id="clip0_3_2121">
<rect width="24" height="24" fill="white"/>
</clipPath>
</defs>
</svg>
