<svg width="24" height="24" viewBox="0 0 24 24" fill="none" xmlns="http://www.w3.org/2000/svg">
<path fill-rule="evenodd" clip-rule="evenodd" d="M1 12C1 9.58684 1.77706 7.35517 3.09461 5.54157C3.12621 5.48933 3.16277 5.43972 3.20408 5.39351C5.21123 2.72542 8.40412 1 12 1C16.4881 1 20.3484 3.68785 22.059 7.54165C22.0787 7.57978 22.096 7.61934 22.1108 7.66014C22.683 8.99165 23 10.4588 23 12C23 18.0751 18.0751 23 12 23C11.6074 23 11.2196 22.9794 10.8376 22.9393C10.7918 22.9374 10.7459 22.9323 10.7003 22.924C5.23773 22.281 1 17.6354 1 12ZM12 3C9.26173 3 6.80908 4.22288 5.15839 6.15232L7.40176 10.033C8.16569 8.24949 9.93693 7 12 7H19.4845C17.8699 4.58803 15.1204 3 12 3ZM12.5874 20.9811C17.2842 20.6785 21 16.7732 21 12C21 10.9481 20.8195 9.93834 20.4879 9H16.0004C16.6281 9.83566 17 10.8744 17 12C17 12.9843 16.7156 13.9022 16.2244 14.6759L12.5874 20.9811ZM12.5952 16.9649L10.3543 20.8499C6.16962 20.0766 3 16.4085 3 12C3 10.5702 3.33339 9.21836 3.92668 8.01784L7.56776 14.3163C8.40315 15.9115 10.0745 17 12 17C12.2014 17 12.4 16.9881 12.5952 16.9649ZM14.6369 13.4318C14.6217 13.4539 14.6073 13.4767 14.5937 13.5003L14.518 13.6315C13.9832 14.4552 13.0552 15 12 15C10.9179 15 9.96953 14.427 9.44184 13.5679C9.43076 13.5449 9.41872 13.522 9.4057 13.4995L9.32685 13.3631C9.11787 12.9541 9 12.4908 9 12C9 10.3431 10.3431 9 12 9C13.6569 9 15 10.3431 15 12C15 12.5185 14.8685 13.0063 14.6369 13.4318Z" fill="#2D3648"/>
</svg>
