<svg width="24" height="24" viewBox="0 0 24 24" fill="none" xmlns="http://www.w3.org/2000/svg">
<path d="M11 7C11.5523 7 12 7.44772 12 8V10H14C14.5523 10 15 10.4477 15 11C15 11.5523 14.5523 12 14 12H12V14C12 14.5523 11.5523 15 11 15C10.4477 15 10 14.5523 10 14V12H8C7.44772 12 7 11.5523 7 11C7 10.4477 7.44772 10 8 10H10V8C10 7.44772 10.4477 7 11 7Z" fill="#2D3648"/>
<path fill-rule="evenodd" clip-rule="evenodd" d="M16.6176 18.032C15.078 19.2635 13.125 20 11 20C6.02944 20 2 15.9706 2 11C2 6.02944 6.02944 2 11 2C15.9706 2 20 6.02944 20 11C20 13.125 19.2635 15.0781 18.0318 16.6178L21.707 20.2929C22.0975 20.6834 22.0975 21.3166 21.707 21.7071C21.3165 22.0977 20.6833 22.0977 20.2928 21.7071L16.6176 18.032ZM4 11C4 7.13401 7.13401 4 11 4C14.866 4 18 7.13401 18 11C18 12.8858 17.2543 14.5975 16.0416 15.8562C16.0072 15.8826 15.9742 15.9115 15.9428 15.9429C15.9114 15.9744 15.8825 16.0074 15.8561 16.0417C14.5974 17.2543 12.8858 18 11 18C7.13401 18 4 14.866 4 11Z" fill="#2D3648"/>
</svg>
