<svg width="24" height="24" viewBox="0 0 24 24" fill="none" xmlns="http://www.w3.org/2000/svg">
<path d="M4 4C3.44772 4 3 4.44772 3 5C3 5.55228 3.44772 6 4 6H20C20.5523 6 21 5.55228 21 5C21 4.44772 20.5523 4 20 4H4Z" fill="#2D3648"/>
<path d="M4 8C3.44772 8 3 8.44772 3 9C3 9.55228 3.44772 10 4 10H20C20.5523 10 21 9.55228 21 9C21 8.44772 20.5523 8 20 8H4Z" fill="#2D3648"/>
<path d="M3 19C3 18.4477 3.44772 18 4 18H20C20.5523 18 21 18.4477 21 19C21 19.5523 20.5523 20 20 20H4C3.44772 20 3 19.5523 3 19Z" fill="#2D3648"/>
<path d="M5 13C4.44772 13 4 13.4477 4 14C4 14.5523 4.44772 15 5 15H5.04861C5.6009 15 6.04861 14.5523 6.04861 14C6.04861 13.4477 5.6009 13 5.04861 13H5Z" fill="#2D3648"/>
<path d="M8.45139 13C7.8991 13 7.45139 13.4477 7.45139 14C7.45139 14.5523 7.8991 15 8.45139 15H8.54861C9.1009 15 9.54861 14.5523 9.54861 14C9.54861 13.4477 9.1009 13 8.54861 13H8.45139Z" fill="#2D3648"/>
<path d="M11.9514 13C11.3991 13 10.9514 13.4477 10.9514 14C10.9514 14.5523 11.3991 15 11.9514 15H12.0486C12.6009 15 13.0486 14.5523 13.0486 14C13.0486 13.4477 12.6009 13 12.0486 13H11.9514Z" fill="#2D3648"/>
<path d="M15.4514 13C14.8991 13 14.4514 13.4477 14.4514 14C14.4514 14.5523 14.8991 15 15.4514 15H15.5486C16.1009 15 16.5486 14.5523 16.5486 14C16.5486 13.4477 16.1009 13 15.5486 13H15.4514Z" fill="#2D3648"/>
<path d="M18.9514 13C18.3991 13 17.9514 13.4477 17.9514 14C17.9514 14.5523 18.3991 15 18.9514 15H19C19.5523 15 20 14.5523 20 14C20 13.4477 19.5523 13 19 13H18.9514Z" fill="#2D3648"/>
</svg>
