<svg width="24" height="24" viewBox="0 0 24 24" fill="none" xmlns="http://www.w3.org/2000/svg">
<g clip-path="url(#clip0_3_2109)">
<path fill-rule="evenodd" clip-rule="evenodd" d="M1.70711 0.292893C1.31658 -0.0976311 0.683417 -0.0976311 0.292893 0.292893C-0.0976311 0.683417 -0.0976311 1.31658 0.292893 1.70711L2.61109 4.0253C1.95895 4.11055 1.34882 4.40854 0.87868 4.87868C0.316071 5.44129 1.49012e-08 6.20435 1.49012e-08 7V17C1.49012e-08 17.7957 0.316071 18.5587 0.87868 19.1213C1.44129 19.6839 2.20435 20 3 20H14C14.7957 20 15.5587 19.6839 16.1213 19.1213C16.3957 18.847 16.6114 18.5249 16.7605 18.1747L22.2929 23.7071C22.6834 24.0976 23.3166 24.0976 23.7071 23.7071C24.0976 23.3166 24.0976 22.6834 23.7071 22.2929L1.70711 0.292893ZM15 16.4142L4.58579 6H3C2.73478 6 2.48043 6.10536 2.29289 6.29289C2.10536 6.48043 2 6.73478 2 7V17C2 17.2652 2.10536 17.5196 2.29289 17.7071C2.48043 17.8946 2.73478 18 3 18H14C14.2652 18 14.5196 17.8946 14.7071 17.7071C14.8946 17.5196 15 17.2652 15 17V16.4142Z" fill="#2D3648"/>
<path d="M10.66 6H14C14.2652 6 14.5196 6.10536 14.7071 6.29289C14.8946 6.48043 15 6.73478 15 7V10.34C15 10.6052 15.1054 10.8596 15.2929 11.0471L16.2929 12.0471C16.6402 12.3944 17.1882 12.4381 17.5861 12.1503L22 8.95752V17C22 17.5523 22.4477 18 23 18C23.5523 18 24 17.5523 24 17V7C24 6.62434 23.7895 6.28037 23.4549 6.10947C23.1204 5.93857 22.7183 5.96958 22.4139 6.18975L17.1045 10.0303L17 9.92579V7C17 6.20435 16.6839 5.44129 16.1213 4.87868C15.5587 4.31607 14.7956 4 14 4H10.66C10.1077 4 9.66 4.44772 9.66 5C9.66 5.55228 10.1077 6 10.66 6Z" fill="#2D3648"/>
</g>
<defs>
<clipPath id="clip0_3_2109">
<rect width="24" height="24" fill="white"/>
</clipPath>
</defs>
</svg>
