<svg width="24" height="24" viewBox="0 0 24 24" fill="none" xmlns="http://www.w3.org/2000/svg">
<path d="M19.7773 4.22293C19.3868 3.83235 18.7536 3.83225 18.363 4.22272C17.9725 4.61318 17.9724 5.24635 18.3628 5.63693C20.0501 7.32468 20.9979 9.61345 20.9979 11.9999C20.9979 14.3864 20.0501 16.6752 18.3628 18.3629C17.9724 18.7535 17.9725 19.3867 18.363 19.7771C18.7536 20.1676 19.3868 20.1675 19.7773 19.7769C21.8394 17.7141 22.9979 14.9167 22.9979 11.9999C22.9979 9.08313 21.8394 6.28574 19.7773 4.22293Z" fill="#2D3648"/>
<path d="M16.2473 7.75293C15.8568 7.36235 15.2236 7.36225 14.833 7.75272C14.4425 8.14318 14.4424 8.77635 14.8328 9.16693C15.5827 9.91704 16.004 10.9343 16.004 11.9949C16.004 13.0556 15.5827 14.0728 14.8328 14.8229C14.4424 15.2135 14.4425 15.8467 14.833 16.2371C15.2236 16.6276 15.8568 16.6275 16.2473 16.2369C17.3721 15.1118 18.004 13.5859 18.004 11.9949C18.004 10.4039 17.3721 8.8781 16.2473 7.75293Z" fill="#2D3648"/>
<path fill-rule="evenodd" clip-rule="evenodd" d="M12 4.99994C12 4.61553 11.7797 4.26516 11.4332 4.09864C11.0867 3.93212 10.6755 3.97893 10.3753 4.21907L5.64922 7.99994H2C1.44772 7.99994 1 8.44765 1 8.99994V14.9999C1 15.5522 1.44772 15.9999 2 15.9999H5.64922L10.3753 19.7808C10.6755 20.0209 11.0867 20.0678 11.4332 19.9012C11.7797 19.7347 12 19.3843 12 18.9999V4.99994ZM6.62469 9.78081L10 7.08056V16.9193L6.62469 14.2191C6.44738 14.0772 6.22707 13.9999 6 13.9999H3V9.99994H6C6.22707 9.99994 6.44738 9.92266 6.62469 9.78081Z" fill="#2D3648"/>
</svg>
