<svg width="24" height="24" viewBox="0 0 24 24" fill="none" xmlns="http://www.w3.org/2000/svg">
<g clip-path="url(#clip0_3_2277)">
<path d="M12.263 0.614871C10.9342 0.0968592 9.50129 -0.0979346 8.08241 0.0465457C6.66353 0.191026 5.29931 0.670643 4.10218 1.44587C2.90505 2.22109 1.90929 3.26972 1.19699 4.50532C0.484683 5.74092 0.0762262 7.12812 0.00528293 8.55257C-0.0656603 9.97702 0.202942 11.3979 0.78895 12.6982C1.37496 13.9985 2.26159 15.1408 3.37577 16.0312C3.80722 16.3759 4.43648 16.3057 4.78125 15.8742C5.12602 15.4428 5.05575 14.8135 4.6243 14.4687C3.75771 13.7763 3.06811 12.8877 2.61233 11.8764C2.15654 10.8651 1.94763 9.75996 2.00281 8.65205C2.05799 7.54414 2.37567 6.46521 2.92969 5.50419C3.4837 4.54317 4.25818 3.72757 5.18928 3.12462C6.12038 2.52167 7.18145 2.14863 8.28502 2.03626C9.38859 1.92388 10.5031 2.07539 11.5366 2.47829C12.5701 2.88119 13.4931 3.52394 14.2294 4.35357C14.9658 5.1832 15.4944 6.17595 15.7718 7.24999C15.8858 7.69149 16.284 7.99996 16.74 7.99996H17.9992C18.9172 8.00113 19.8069 8.31801 20.5189 8.89742C21.231 9.47693 21.7221 10.2838 21.9097 11.1825C22.0974 12.0812 21.9701 13.0172 21.5493 13.8332C21.1285 14.6492 20.4399 15.2956 19.5989 15.664C19.093 15.8855 18.8625 16.4752 19.084 16.9811C19.3056 17.487 19.8953 17.7175 20.4012 17.496C21.6627 16.9435 22.6957 15.9738 23.3269 14.7498C23.9581 13.5258 24.149 12.1219 23.8675 10.7738C23.5861 9.42567 22.8494 8.21541 21.7813 7.34616C20.7131 6.47691 19.3784 6.00158 18.0012 5.99996H17.4793C17.0929 4.90703 16.498 3.89662 15.7252 3.02595C14.7785 1.95928 13.5918 1.13288 12.263 0.614871Z" fill="#2D3648"/>
<path d="M9 13C9 12.4477 8.55229 12 8 12C7.44772 12 7 12.4477 7 13V21C7 21.5523 7.44772 22 8 22C8.55229 22 9 21.5523 9 21V13Z" fill="#2D3648"/>
<path d="M17 13C17 12.4477 16.5523 12 16 12C15.4477 12 15 12.4477 15 13V21C15 21.5523 15.4477 22 16 22C16.5523 22 17 21.5523 17 21V13Z" fill="#2D3648"/>
<path d="M12 14C12.5523 14 13 14.4477 13 15V23C13 23.5523 12.5523 24 12 24C11.4477 24 11 23.5523 11 23V15C11 14.4477 11.4477 14 12 14Z" fill="#2D3648"/>
</g>
<defs>
<clipPath id="clip0_3_2277">
<rect width="24" height="24" fill="white"/>
</clipPath>
</defs>
</svg>
