<svg width="24" height="24" viewBox="0 0 24 24" fill="none" xmlns="http://www.w3.org/2000/svg">
<g clip-path="url(#clip0_3_2085)">
<circle cx="12" cy="12" r="12" fill="#1A202C"/>
<path d="M12.1119 17.1392C11.5882 17.1359 11.0827 17.048 10.5955 16.8757C10.1116 16.7033 9.67744 16.4233 9.29297 16.0355C8.9085 15.6477 8.60357 15.134 8.37819 14.4943C8.15613 13.8546 8.0451 13.0691 8.0451 12.1378C8.04841 11.2826 8.14619 10.5187 8.33842 9.84586C8.53397 9.16972 8.81238 8.59633 9.17365 8.12569C9.53823 7.65504 9.97408 7.29709 10.4812 7.05182C10.9883 6.80324 11.5567 6.67896 12.1864 6.67896C12.8659 6.67896 13.4658 6.81153 13.9861 7.07668C14.5065 7.33852 14.9241 7.69482 15.239 8.14557C15.5572 8.59633 15.7494 9.10178 15.8157 9.66191H13.6928C13.61 9.30727 13.436 9.02886 13.1708 8.82668C12.9057 8.6245 12.5775 8.52342 12.1864 8.52342C11.5236 8.52342 11.0198 8.81177 10.6751 9.38847C10.3337 9.96518 10.1597 10.749 10.1531 11.74H10.2227C10.3751 11.4384 10.5806 11.1816 10.8391 10.9694C11.101 10.754 11.3976 10.5899 11.729 10.4773C12.0638 10.3612 12.4168 10.3032 12.788 10.3032C13.3912 10.3032 13.9281 10.4458 14.3988 10.7308C14.8694 11.0125 15.2406 11.4003 15.5124 11.8942C15.7842 12.388 15.9201 12.9531 15.9201 13.5895C15.9201 14.2789 15.7593 14.892 15.4379 15.429C15.1197 15.9659 14.6739 16.3868 14.1005 16.6917C13.5304 16.9933 12.8675 17.1425 12.1119 17.1392ZM12.1019 15.4488C12.4334 15.4488 12.73 15.3693 12.9918 15.2102C13.2537 15.0511 13.4592 14.8357 13.6083 14.5639C13.7575 14.2921 13.832 13.9872 13.832 13.6491C13.832 13.3111 13.7575 13.0078 13.6083 12.7393C13.4625 12.4709 13.2603 12.2571 13.0018 12.098C12.7433 11.9389 12.4483 11.8594 12.1168 11.8594C11.8683 11.8594 11.6379 11.9058 11.4258 11.9986C11.217 12.0914 11.033 12.2206 10.8739 12.3863C10.7182 12.5521 10.5955 12.7443 10.506 12.963C10.4165 13.1785 10.3718 13.4088 10.3718 13.6541C10.3718 13.9822 10.4464 14.2822 10.5955 14.554C10.748 14.8257 10.9535 15.0428 11.212 15.2052C11.4738 15.3676 11.7705 15.4488 12.1019 15.4488Z" fill="white"/>
</g>
<defs>
<clipPath id="clip0_3_2085">
<rect width="24" height="24" fill="white"/>
</clipPath>
</defs>
</svg>
