<svg width="24" height="24" viewBox="0 0 24 24" fill="none" xmlns="http://www.w3.org/2000/svg">
<path fill-rule="evenodd" clip-rule="evenodd" d="M12 1C5.92487 1 1 5.92487 1 12C1 18.0751 5.92487 23 12 23C18.0751 23 23 18.0751 23 12C23 5.92487 18.0751 1 12 1ZM6.38228 4.96813C7.92196 3.73648 9.87497 3 12 3C16.9706 3 21 7.02944 21 12C21 14.125 20.2635 16.078 19.0319 17.6177L6.38228 4.96813ZM4.96807 6.38235C3.73646 7.92201 3 9.875 3 12C3 16.9706 7.02944 21 12 21C14.125 21 16.078 20.2635 17.6177 19.0319L4.96807 6.38235Z" fill="#2D3648"/>
</svg>
