<svg width="24" height="24" viewBox="0 0 24 24" fill="none" xmlns="http://www.w3.org/2000/svg">
<path fill-rule="evenodd" clip-rule="evenodd" d="M12 1.00208C11.4742 1.00208 10.9577 1.14026 10.5021 1.40276L7.30633 3.22894C7.09619 3.27051 6.90017 3.37906 6.75258 3.54537L3.50386 5.40178L3.5 5.404C3.13 5.61762 2.8109 5.90721 2.56304 6.25244C2.50271 6.3128 2.44917 6.38193 2.40441 6.4593C2.36586 6.52594 2.33586 6.59518 2.31407 6.66574C2.10834 7.07923 2.00048 7.53547 2 7.999V16.0011C2.00054 16.5271 2.13941 17.0438 2.40269 17.4993C2.66597 17.9548 3.04439 18.333 3.5 18.5961L3.50386 18.5983L10.5 22.5961L10.5019 22.5971C10.8191 22.78 11.1658 22.9025 11.5247 22.9601C11.6661 23.0366 11.828 23.08 12 23.08C12.172 23.08 12.3339 23.0366 12.4753 22.9601C12.8342 22.9025 13.181 22.7799 13.4982 22.5971L13.5 22.5961L20.4961 18.5983L20.5 18.5961C20.9556 18.333 21.334 17.9548 21.5973 17.4993C21.8606 17.0438 21.9995 16.5271 22 16.0011V7.999C21.9995 7.53554 21.8917 7.07938 21.686 6.66594C21.6642 6.5953 21.6342 6.526 21.5956 6.4593C21.5508 6.38187 21.4973 6.31269 21.4369 6.25231C21.189 5.90713 20.87 5.61759 20.5 5.40399L13.5 1.404L13.4979 1.4028C13.0424 1.14027 12.5258 1.00208 12 1.00208ZM13 20.5783L19.5 16.864L19.5016 16.8631C19.6527 16.7754 19.7783 16.6497 19.8658 16.4984C19.9535 16.3466 19.9998 16.1744 20 15.999V8.53757L13 12.5868V20.5783ZM11 12.5868L4 8.53755V15.9994C4.00026 16.1746 4.04654 16.3467 4.13423 16.4984C4.22169 16.6497 4.34726 16.7754 4.49842 16.8631L4.5 16.864L11 20.5783V12.5868ZM12.5039 3.13827L18.961 6.82807L16.5052 8.24867L9.5609 4.24412L11.4961 3.13827L11.5 3.13605C11.652 3.04828 11.8245 3.00208 12 3.00208C12.1755 3.00208 12.348 3.04828 12.5 3.13605L12.5039 3.13827ZM12 10.8548L14.5065 9.40482L7.54999 5.39321L5.03899 6.82805L12 10.8548Z" fill="#2D3648"/>
</svg>
