<svg width="24" height="24" viewBox="0 0 24 24" fill="none" xmlns="http://www.w3.org/2000/svg">
<g clip-path="url(#clip0_3_2137)">
<path fill-rule="evenodd" clip-rule="evenodd" d="M11.5 0C10.5717 0 9.6815 0.368749 9.02513 1.02513C8.36875 1.6815 8 2.57174 8 3.5V14.259C7.23804 14.8876 6.65661 15.7123 6.32153 16.6487C5.924 17.7597 5.8943 18.969 6.23681 20.0982C6.57933 21.2273 7.27589 22.2164 8.22363 22.9193C9.17138 23.6222 10.32 24.0017 11.5 24.0017C12.68 24.0017 13.8286 23.6222 14.7764 22.9193C15.7241 22.2164 16.4207 21.2273 16.7632 20.0982C17.1057 18.969 17.076 17.7597 16.6785 16.6487C16.3434 15.7123 15.762 14.8876 15 14.259V3.5C15 2.57174 14.6313 1.6815 13.9749 1.02513C13.3185 0.368749 12.4283 0 11.5 0ZM10.4393 2.43934C10.7206 2.15804 11.1022 2 11.5 2C11.8978 2 12.2794 2.15804 12.5607 2.43934C12.842 2.72064 13 3.10218 13 3.5V14.76C13 15.094 13.1667 15.4059 13.4444 15.5915C14.0688 16.0086 14.5424 16.6155 14.7954 17.3225C15.0484 18.0295 15.0673 18.7991 14.8493 19.5176C14.6313 20.2362 14.1881 20.8656 13.585 21.3129C12.9819 21.7602 12.2509 22.0017 11.5 22.0017C10.7491 22.0017 10.0181 21.7602 9.41504 21.3129C8.81193 20.8656 8.36866 20.2362 8.1507 19.5176C7.93274 18.7991 7.95164 18.0295 8.20461 17.3225C8.45758 16.6155 8.93122 16.0086 9.55556 15.5915C9.83326 15.4059 10 15.094 10 14.76V3.5C10 3.10218 10.158 2.72064 10.4393 2.43934Z" fill="#2D3648"/>
</g>
<defs>
<clipPath id="clip0_3_2137">
<rect width="24" height="24" fill="white"/>
</clipPath>
</defs>
</svg>
