<svg width="24" height="24" viewBox="0 0 24 24" fill="none" xmlns="http://www.w3.org/2000/svg">
<path fill-rule="evenodd" clip-rule="evenodd" d="M10.7003 22.924C6.77571 22.4621 3.48333 19.934 1.94051 16.4573C1.92123 16.4198 1.90424 16.381 1.88973 16.341C1.31714 15.0092 1 13.5416 1 12C1 9.58684 1.77706 7.35517 3.09461 5.54157C3.12621 5.48933 3.16277 5.43972 3.20408 5.3935C5.21123 2.72542 8.40412 1 12 1C12.3927 1 12.7805 1.02057 13.1626 1.0607C13.2081 1.06261 13.2537 1.06765 13.299 1.0759C17.2238 1.53765 20.5164 4.06564 22.0594 7.54247C22.0788 7.58008 22.0958 7.61907 22.1104 7.65927C22.6829 8.99101 23 10.4585 23 12C23 14.4131 22.223 16.6448 20.9054 18.4584C20.8738 18.5106 20.8372 18.5603 20.7959 18.6065C18.7887 21.2746 15.5959 23 12 23C11.6074 23 11.2196 22.9794 10.8376 22.9393C10.7918 22.9374 10.7459 22.9323 10.7003 22.924ZM11.422 7L13.6452 3.15002C16.0739 3.59865 18.1607 5.02237 19.4845 7H14.3274C14.3152 6.99978 14.3031 6.99978 14.2909 7H11.422ZM8.53475 11.9998L10.267 9H13.7328L15.4651 12L13.7327 15H10.2672L8.53475 11.9998ZM15.1661 16.5172C15.1733 16.5054 15.1802 16.4934 15.1868 16.4813L16.6199 13.9997L18.8418 17.8474C17.3103 19.6377 15.0883 20.8197 12.5884 20.9811L15.1661 16.5172ZM12.5778 17H9.70903C9.69692 17.0002 9.68482 17.0002 9.67273 17H4.51555C5.8393 18.9776 7.92603 20.4013 10.3546 20.8499L12.5778 17ZM17.4937 11.5135L20.0737 15.9813C20.6668 14.781 21 13.4294 21 12C21 10.9481 20.8195 9.93834 20.4879 9H16.0423L17.4771 11.4848C17.4828 11.4942 17.4884 11.5038 17.4937 11.5135ZM3 12C3 13.0519 3.18046 14.0617 3.51212 15H7.95773L6.52771 12.5236C6.5185 12.5086 6.50971 12.4934 6.50134 12.478L3.92626 8.01868C3.33324 9.21899 3 10.5706 3 12ZM5.15817 6.15257C6.68965 4.36235 8.91152 3.18033 11.4114 3.01894L7.37999 10.0001L5.15817 6.15257Z" fill="#2D3648"/>
</svg>
