<svg width="24" height="24" viewBox="0 0 24 24" fill="none" xmlns="http://www.w3.org/2000/svg">
<g clip-path="url(#clip0_3_2086)">
<circle cx="12" cy="12" r="12" fill="#1A202C"/>
<path d="M12.0323 17.1391C11.3297 17.1391 10.7032 17.0099 10.1531 16.7514C9.60618 16.4928 9.17199 16.1365 8.8505 15.6825C8.529 15.2284 8.36162 14.708 8.34837 14.1214H10.4364C10.4596 14.5158 10.6254 14.8356 10.9336 15.0809C11.2418 15.3262 11.6081 15.4488 12.0323 15.4488C12.3704 15.4488 12.6687 15.3742 12.9272 15.2251C13.189 15.0726 13.3929 14.8621 13.5387 14.5937C13.6879 14.3219 13.7624 14.0104 13.7624 13.659C13.7624 13.3011 13.6862 12.9862 13.5337 12.7144C13.3846 12.4426 13.1774 12.2305 12.9123 12.0781C12.6471 11.9256 12.3439 11.8477 12.0025 11.8444C11.7042 11.8444 11.4142 11.9057 11.1325 12.0283C10.854 12.151 10.637 12.3184 10.4812 12.5305L8.56712 12.1874L9.04936 6.81812H15.2738V8.57806H10.8242L10.5607 11.1285H10.6204C10.7994 10.8766 11.0695 10.6678 11.4308 10.5021C11.792 10.3363 12.1964 10.2535 12.6438 10.2535C13.257 10.2535 13.8039 10.3977 14.2844 10.686C14.765 10.9744 15.1445 11.3704 15.4229 11.8742C15.7013 12.3747 15.8389 12.9514 15.8356 13.6043C15.8389 14.2904 15.6798 14.9003 15.3583 15.4339C15.0401 15.9642 14.5943 16.3818 14.021 16.6867C13.4509 16.9883 12.788 17.1391 12.0323 17.1391Z" fill="white"/>
</g>
<defs>
<clipPath id="clip0_3_2086">
<rect width="24" height="24" fill="white"/>
</clipPath>
</defs>
</svg>
