<svg width="24" height="24" viewBox="0 0 24 24" fill="none" xmlns="http://www.w3.org/2000/svg">
<path fill-rule="evenodd" clip-rule="evenodd" d="M7.29289 9.29289C7.68342 8.90237 8.31658 8.90237 8.70711 9.29289L10.7066 11.2924C11.0982 11.105 11.5369 11 12 11C13.6569 11 15 12.3431 15 14C15 15.6569 13.6569 17 12 17C10.3431 17 9 15.6569 9 14C9 13.5369 9.10495 13.0982 9.29237 12.7066L7.29289 10.7071C6.90237 10.3166 6.90237 9.68342 7.29289 9.29289ZM12 13C11.4477 13 11 13.4477 11 14C11 14.5523 11.4477 15 12 15C12.5523 15 13 14.5523 13 14C13 13.4477 12.5523 13 12 13Z" fill="#2D3648"/>
<path fill-rule="evenodd" clip-rule="evenodd" d="M0 14C0 7.37272 5.37272 2 12 2C18.6273 2 24 7.37272 24 14C24 16.9 22.9695 19.5623 21.256 21.6368L20.956 22H3.04396L2.744 21.6368C1.0305 19.5623 0 16.9 0 14ZM11 4.04938V5C11 5.55228 11.4477 6 12 6C12.5523 6 13 5.55228 13 5V4.04938C15.0116 4.24912 16.8479 5.04502 18.3297 6.25791C18.3172 6.2692 18.3049 6.28086 18.2929 6.29289L17.2929 7.29289C16.9024 7.68342 16.9024 8.31658 17.2929 8.70711C17.6834 9.09763 18.3166 9.09763 18.7071 8.70711L19.7071 7.70711C19.7191 7.69507 19.7308 7.68281 19.7421 7.67033C20.955 9.15209 21.7509 10.9884 21.9506 13H21C20.4477 13 20 13.4477 20 14C20 14.5523 20.4477 15 21 15H21.9507C21.7655 16.8653 21.068 18.5789 20.0002 20H3.99982C2.93202 18.5789 2.23446 16.8653 2.04935 15H3C3.55228 15 4 14.5523 4 14C4 13.4477 3.55228 13 3 13H2.04938C2.51847 8.27569 6.27569 4.51847 11 4.04938Z" fill="#2D3648"/>
</svg>
