<svg width="24" height="24" viewBox="0 0 24 24" fill="none" xmlns="http://www.w3.org/2000/svg">
<path fill-rule="evenodd" clip-rule="evenodd" d="M12 1C11.7348 1 11.4804 1.10536 11.2929 1.29289C11.1054 1.48043 11 1.73478 11 2V12C11 12.5523 11.4477 13 12 13H22C22.5523 13 23 12.5523 23 12C23 10.5555 22.7155 9.12506 22.1627 7.79048C21.6099 6.4559 20.7996 5.24327 19.7782 4.22183C18.7567 3.20038 17.5441 2.39013 16.2095 1.83733C14.8749 1.28452 13.4445 1 12 1ZM13 11V3.05573C13.8386 3.14949 14.6615 3.3609 15.4442 3.68508C16.5361 4.13738 17.5282 4.80031 18.364 5.63604C19.1997 6.47177 19.8626 7.46392 20.3149 8.55585C20.6391 9.33849 20.8505 10.1614 20.9443 11H13Z" fill="#2D3648"/>
<path d="M8.39988 3.74652C8.90606 3.52563 9.13734 2.93621 8.91645 2.43003C8.69556 1.92384 8.10614 1.69256 7.59996 1.91345C5.95313 2.6321 4.50741 3.74323 3.38921 5.14969C2.271 6.55614 1.51435 8.21511 1.18541 9.98155C0.856473 11.748 0.965257 13.5681 1.50225 15.2828C2.03925 16.9975 2.98811 18.5545 4.26588 19.8178C5.54364 21.081 7.11141 22.012 8.83212 22.5294C10.5528 23.0468 12.3741 23.1348 14.1366 22.7857C15.8992 22.4366 17.5494 21.6611 18.943 20.5269C20.3366 19.3927 21.4312 17.9344 22.131 16.2795C22.3461 15.7708 22.1081 15.184 21.5994 14.9689C21.0907 14.7538 20.504 14.9918 20.2889 15.5005C19.7163 16.8546 18.8208 18.0477 17.6806 18.9757C16.5403 19.9037 15.1902 20.5382 13.7481 20.8238C12.306 21.1094 10.8159 21.0374 9.40801 20.6141C8.00016 20.1908 6.71744 19.4291 5.67199 18.3955C4.62655 17.3619 3.85021 16.088 3.41085 14.6851C2.97149 13.2822 2.88248 11.793 3.15161 10.3477C3.42075 8.90242 4.03982 7.54508 4.95472 6.39435C5.86961 5.24361 7.05247 4.33451 8.39988 3.74652Z" fill="#2D3648"/>
</svg>
