<svg width="24" height="24" viewBox="0 0 24 24" fill="none" xmlns="http://www.w3.org/2000/svg">
<path d="M14.09 10.95L15.5 9.54L16.91 10.95L17.97 9.89L16.56 8.47L17.97 7.06L16.91 6L15.5 7.41L14.09 6L13.03 7.06L14.44 8.47L13.03 9.89L14.09 10.95Z" fill="#2D3648"/>
<path d="M6.25 7.71997H11.25V9.21997H6.25V7.71997Z" fill="#2D3648"/>
<path d="M18 15.75H13V17.25H18V15.75Z" fill="#2D3648"/>
<path d="M18 13.25H13V14.75H18V13.25Z" fill="#2D3648"/>
<path d="M8 18H9.5V16H11.5V14.5H9.5V12.5H8V14.5H6V16H8V18Z" fill="#2D3648"/>
<path fill-rule="evenodd" clip-rule="evenodd" d="M5 2C3.34315 2 2 3.34315 2 5V19C2 20.6569 3.34315 22 5 22H19C20.6569 22 22 20.6569 22 19V5C22 3.34315 20.6569 2 19 2H5ZM4 5C4 4.44772 4.44772 4 5 4H19C19.5523 4 20 4.44772 20 5V19C20 19.5523 19.5523 20 19 20H5C4.44772 20 4 19.5523 4 19V5Z" fill="#2D3648"/>
</svg>
