<svg width="24" height="24" viewBox="0 0 24 24" fill="none" xmlns="http://www.w3.org/2000/svg">
<g clip-path="url(#clip0_3_2090)">
<circle cx="12" cy="12" r="12" fill="#1A202C"/>
<path d="M11.9981 17.2237C11.143 17.2204 10.4072 17.0099 9.79074 16.5923C9.17757 16.1747 8.70527 15.5698 8.37383 14.7777C8.04571 13.9855 7.8833 13.0326 7.88662 11.919C7.88662 10.8087 8.05068 9.86243 8.3788 9.08023C8.71024 8.29804 9.18254 7.7031 9.79571 7.29543C10.4122 6.88445 11.1463 6.67896 11.9981 6.67896C12.8499 6.67896 13.5824 6.88445 14.1956 7.29543C14.812 7.70642 15.286 8.30301 15.6174 9.08521C15.9489 9.86409 16.1129 10.8087 16.1096 11.919C16.1096 13.036 15.9439 13.9905 15.6125 14.7826C15.2843 15.5748 14.8137 16.1797 14.2005 16.5973C13.5874 17.0149 12.8532 17.2237 11.9981 17.2237ZM11.9981 15.4389C12.5815 15.4389 13.0471 15.1456 13.3951 14.5589C13.7432 13.9723 13.9155 13.0923 13.9122 11.919C13.9122 11.1468 13.8326 10.5038 13.6735 9.99003C13.5178 9.4763 13.2957 9.09018 13.0074 8.83165C12.7223 8.57313 12.3859 8.44387 11.9981 8.44387C11.4181 8.44387 10.9541 8.73388 10.6061 9.3139C10.2581 9.89392 10.0824 10.7623 10.0791 11.919C10.0791 12.7012 10.157 13.3541 10.3128 13.8778C10.4718 14.3982 10.6956 14.7893 10.9839 15.0511C11.2723 15.3096 11.6103 15.4389 11.9981 15.4389Z" fill="white"/>
</g>
<defs>
<clipPath id="clip0_3_2090">
<rect width="24" height="24" fill="white"/>
</clipPath>
</defs>
</svg>
