<svg width="24" height="24" viewBox="0 0 24 24" fill="none" xmlns="http://www.w3.org/2000/svg">
<g clip-path="url(#clip0_3_2287)">
<path d="M12.6272 2.75554C11.3819 2.20552 10.028 1.94517 8.66752 1.9941C7.30704 2.04302 5.97538 2.39994 4.7728 3.03799C3.57022 3.67604 2.52806 4.57859 1.72476 5.6777C0.921473 6.7768 0.377987 8.04382 0.135222 9.38336C-0.107542 10.7229 -0.0432598 12.1001 0.323231 13.4112C0.689722 14.7223 1.34887 15.9331 2.25105 16.9526C2.61706 17.3662 3.24904 17.4048 3.66264 17.0388C4.07623 16.6728 4.11481 16.0408 3.74881 15.6272C3.04711 14.8343 2.53444 13.8925 2.24939 12.8727C1.96435 11.853 1.91435 10.7819 2.10317 9.74001C2.29198 8.69814 2.71469 7.71269 3.33948 6.85783C3.96426 6.00297 4.77483 5.30099 5.71017 4.80472C6.64551 4.30846 7.68124 4.03086 8.7394 3.9928C9.79755 3.95475 10.8505 4.15724 11.8191 4.58504C12.7877 5.01283 13.6466 5.65478 14.3312 6.46255C15.0157 7.27032 15.5081 8.22287 15.7713 9.24848C15.8848 9.69071 16.2834 9.99993 16.7399 9.99993H17.9999C18.8502 9.99927 19.6793 10.2696 20.3656 10.7716C21.0518 11.2736 21.5602 11.9812 21.817 12.7918C22.0738 13.6023 22.0657 14.4736 21.7937 15.2793C21.5218 16.0849 21.0002 16.7828 20.3047 17.2719C19.8529 17.5896 19.7442 18.2134 20.0619 18.6652C20.3796 19.1169 21.0034 19.2256 21.4552 18.9079C22.4984 18.1743 23.2808 17.1273 23.6887 15.9189C24.0966 14.7105 24.1088 13.4036 23.7236 12.1877C23.3384 10.9719 22.5758 9.91044 21.5464 9.15741C20.5173 8.40453 19.2751 7.9991 17.9999 7.99993H17.4804C17.1169 6.96749 16.5674 6.00784 15.8569 5.16948C14.9768 4.13092 13.8725 3.30556 12.6272 2.75554Z" fill="#2D3648"/>
<path d="M12 10.9999C12.5523 10.9999 13 11.4477 13 11.9999V18.5857L15.2929 16.2928C15.6834 15.9023 16.3166 15.9023 16.7071 16.2928C17.0976 16.6834 17.0976 17.3165 16.7071 17.707L12.7071 21.707C12.3166 22.0976 11.6834 22.0976 11.2929 21.707L7.29289 17.707C6.90237 17.3165 6.90237 16.6834 7.29289 16.2928C7.68342 15.9023 8.31658 15.9023 8.70711 16.2928L11 18.5857V11.9999C11 11.4477 11.4477 10.9999 12 10.9999Z" fill="#2D3648"/>
</g>
<defs>
<clipPath id="clip0_3_2287">
<rect width="24" height="24" fill="white"/>
</clipPath>
</defs>
</svg>
