<svg width="24" height="24" viewBox="0 0 24 24" fill="none" xmlns="http://www.w3.org/2000/svg">
<g clip-path="url(#clip0_3_2123)">
<path fill-rule="evenodd" clip-rule="evenodd" d="M17.8098 2.15388C16.7207 1.88139 15.5743 1.94993 14.5255 2.35024C13.4767 2.75054 12.5761 3.4633 11.9456 4.3921C11.322 5.3107 10.9923 6.3968 10.9997 7.50646C9.74241 7.41197 8.51247 7.07196 7.38061 6.50226C5.95765 5.78604 4.73391 4.72901 3.81837 3.42534L3.00001 4.00005L2.10558 3.55283C2.09764 3.56873 2.09014 3.58478 2.08309 3.60096L2.08014 3.60771L2.06857 3.63464C2.05911 3.65689 2.04622 3.6877 2.03045 3.72663C1.99892 3.80446 1.95578 3.91493 1.90529 4.05458C1.80443 4.33355 1.67359 4.73082 1.54749 5.21841C1.29649 6.18894 1.05772 7.54233 1.12604 9.04545C1.19457 10.5529 1.57344 12.2317 2.57707 13.8163C3.32943 15.0043 4.4116 16.1055 5.91475 17.033C4.39638 17.7325 2.72657 18.0679 1.03976 18.0008C0.577035 17.9824 0.162209 18.2841 0.0371604 18.73C-0.0878882 19.1759 0.109558 19.6493 0.514369 19.8742C5.29088 22.5278 10.6509 22.5525 14.8449 20.3203C19.0631 18.0751 22 13.6 22 7.50005L22 7.49674C21.9995 7.33448 21.9918 7.17242 21.9769 7.01102C22.9425 5.93961 23.6291 4.64319 23.9716 3.23666L23 3.00005L22.4236 2.18288C21.7151 2.68262 20.9448 3.08663 20.1326 3.38515C19.4723 2.7946 18.6758 2.37057 17.8098 2.15388ZM3.12398 8.95464C3.07428 7.86128 3.22097 6.84502 3.40466 6.04365C4.29726 6.95253 5.33586 7.71212 6.48143 8.28872C8.199 9.15324 10.1037 9.57955 12.0259 9.52971C12.5679 9.51566 13 9.07223 13 8.53005V7.53005L12.9999 7.51664C12.9904 6.80381 13.2 6.10525 13.6004 5.51542C14.0008 4.9256 14.5727 4.47297 15.2387 4.21876C15.9047 3.96455 16.6327 3.92102 17.3243 4.09407C18.0159 4.26711 18.6376 4.64837 19.1055 5.18628C19.3636 5.48308 19.7717 5.60099 20.1483 5.48758C20.38 5.41783 20.6092 5.3411 20.8357 5.25755C20.6469 5.50421 20.4406 5.73835 20.2178 5.95804C19.9802 6.19242 19.8751 6.52994 19.9378 6.8578C19.9784 7.07006 19.9992 7.28562 20 7.50171C19.9995 12.9009 17.4365 16.6752 13.9052 18.5548C11.307 19.9377 8.13028 20.3234 4.96011 19.5157C6.23421 19.1489 7.4507 18.5815 8.56164 17.8274C8.86207 17.6235 9.02834 17.2728 8.99605 16.9111C8.96375 16.5494 8.73795 16.2337 8.40615 16.0862C6.31605 15.1573 5.0403 13.9677 4.26671 12.7462C3.48909 11.5184 3.18046 10.1971 3.12398 8.95464Z" fill="#2D3648"/>
</g>
<defs>
<clipPath id="clip0_3_2123">
<rect width="24" height="24" fill="white"/>
</clipPath>
</defs>
</svg>
