<svg width="24" height="24" viewBox="0 0 24 24" fill="none" xmlns="http://www.w3.org/2000/svg">
<g clip-path="url(#clip0_3_2331)">
<path fill-rule="evenodd" clip-rule="evenodd" d="M1.70711 0.292893C1.31658 -0.0976311 0.683417 -0.0976311 0.292893 0.292893C-0.0976311 0.683417 -0.0976311 1.31658 0.292893 1.70711L5.58032 6.99453L5.00008 8.00107C4.99992 11.3531 4.28294 13.4348 3.62218 14.6461C3.29039 15.2544 2.9673 15.6535 2.74288 15.8904C2.6304 16.0091 2.54202 16.0878 2.4888 16.1322C2.46218 16.1544 2.44432 16.168 2.43663 16.1737L2.43377 16.1758C2.07528 16.4221 1.91664 16.8725 2.04299 17.2898C2.17068 17.7115 2.55941 18 3.00008 18H16.5858L22.2929 23.7071C22.6834 24.0976 23.3166 24.0976 23.7071 23.7071C24.0976 23.3166 24.0976 22.6834 23.7071 22.2929L17.7148 16.3006C17.7098 16.2954 17.7046 16.2903 17.6995 16.2853L6.9826 5.56839C6.97215 5.55745 6.96145 5.54674 6.95048 5.53627L1.70711 0.292893ZM6.99672 8.41094C6.94043 11.83 6.18522 14.1239 5.37797 15.6038C5.30188 15.7434 5.22549 15.8753 5.1494 16H14.5858L6.99672 8.41094Z" fill="#2D3648"/>
<path d="M15.3065 1.82122C14.1888 1.22224 12.9294 0.938119 11.6627 0.999221C10.3961 1.06032 9.16989 1.46435 8.11503 2.16814C7.65561 2.47466 7.53166 3.09558 7.83818 3.55499C8.1447 4.01441 8.76561 4.13836 9.22503 3.83184C9.9785 3.32913 10.8544 3.04054 11.7591 2.9969C12.6638 2.95325 13.5634 3.15619 14.3618 3.58404C15.1602 4.01189 15.8273 4.64857 16.292 5.42608C16.7561 6.20277 17.0009 7.09083 17 7.99561C16.9727 9.77413 17.1967 11.5476 17.6654 13.2635C17.811 13.7963 18.3608 14.1102 18.8936 13.9647C19.4264 13.8191 19.7403 13.2693 19.5947 12.7365C19.1747 11.1989 18.9745 9.60967 19 8.01598L15.3065 1.82122Z" fill="#2D3648"/>
<path d="M15.3065 1.82122C16.4242 2.42021 17.3582 3.31157 18.0087 4.40008C18.6572 5.48505 18.9997 6.72528 19 7.98909L15.3065 1.82122Z" fill="#2D3648"/>
<path d="M11.1349 20.4982C10.8578 20.0205 10.2459 19.8579 9.76817 20.135C9.29044 20.4121 9.12782 21.024 9.40494 21.5018C9.66866 21.9564 10.0472 22.3337 10.5026 22.5961C10.958 22.8584 11.4744 22.9965 11.9999 22.9965C12.5255 22.9965 13.0419 22.8584 13.4973 22.5961C13.9527 22.3337 14.3312 21.9564 14.5949 21.5018C14.8721 21.024 14.7094 20.4121 14.2317 20.135C13.754 19.8579 13.1421 20.0205 12.8649 20.4982C12.777 20.6498 12.6509 20.7756 12.4991 20.863C12.3472 20.9504 12.1751 20.9965 11.9999 20.9965C11.8247 20.9965 11.6526 20.9504 11.5008 20.863C11.349 20.7756 11.2228 20.6498 11.1349 20.4982Z" fill="#2D3648"/>
</g>
<defs>
<clipPath id="clip0_3_2331">
<rect width="24" height="24" fill="white"/>
</clipPath>
</defs>
</svg>
