<svg width="24" height="24" viewBox="0 0 24 24" fill="none" xmlns="http://www.w3.org/2000/svg">
<path fill-rule="evenodd" clip-rule="evenodd" d="M18 1.87866C17.1722 1.87866 16.3783 2.20751 15.7929 2.79288L3.2929 15.2929C3.16474 15.421 3.07382 15.5816 3.02986 15.7574L2.02986 19.7574C1.94467 20.0982 2.04452 20.4587 2.2929 20.7071C2.54128 20.9555 2.90177 21.0553 3.24254 20.9701L7.24254 19.9701C7.41837 19.9262 7.57895 19.8352 7.70711 19.7071L20.2071 7.20709C20.497 6.91725 20.7269 6.57316 20.8837 6.19446C21.0406 5.81576 21.1213 5.40988 21.1213 4.99998C21.1213 4.59008 21.0406 4.1842 20.8837 3.8055C20.7269 3.42681 20.497 3.08272 20.2071 2.79288C19.9173 2.50303 19.5732 2.27312 19.1945 2.11626C18.8158 1.9594 18.4099 1.87866 18 1.87866ZM17.2071 4.20709C17.4174 3.9968 17.7026 3.87866 18 3.87866C18.1473 3.87866 18.2931 3.90767 18.4291 3.96402C18.5652 4.02037 18.6888 4.10296 18.7929 4.20709C18.897 4.31121 18.9796 4.43483 19.036 4.57087C19.0923 4.70692 19.1213 4.85273 19.1213 4.99998C19.1213 5.14724 19.0923 5.29305 19.036 5.42909C18.9796 5.56514 18.897 5.68875 18.7929 5.79288L6.48876 18.097L4.37437 18.6256L4.90297 16.5112L17.2071 4.20709Z" fill="#2D3648"/>
<path d="M12 19C11.4477 19 11 19.4477 11 20C11 20.5523 11.4477 21 12 21H21C21.5523 21 22 20.5523 22 20C22 19.4477 21.5523 19 21 19H12Z" fill="#2D3648"/>
</svg>
