<svg width="24" height="24" viewBox="0 0 24 24" fill="none" xmlns="http://www.w3.org/2000/svg">
<path d="M14.2124 2.24899C12.5648 1.8762 10.8497 1.92686 9.22695 2.39623C7.61085 2.86369 6.13892 3.73128 4.94733 4.91856L2 7.63917V4.00006C2 3.44778 1.55228 3.00006 1 3.00006C0.447715 3.00006 0 3.44778 0 4.00006V10.0001C0 10.5523 0.447715 11.0001 1 11.0001H7C7.55228 11.0001 8 10.5523 8 10.0001C8 9.44778 7.55228 9.00006 7 9.00006H3.47433L6.31828 6.37488C6.32813 6.36578 6.3378 6.35649 6.34728 6.347C7.30261 5.3912 8.4845 4.69297 9.78267 4.31747C11.0808 3.94198 12.453 3.90145 13.771 4.19968C15.0891 4.49791 16.3101 5.12517 17.3202 6.02293C18.3303 6.9207 19.0965 8.0597 19.5473 9.33367C19.7315 9.85432 20.3029 10.127 20.8236 9.94279C21.3442 9.75855 21.617 9.18713 21.4327 8.66648C20.8692 7.07402 19.9115 5.65026 18.6489 4.52806C17.3863 3.40585 15.86 2.62177 14.2124 2.24899Z" fill="#2D3648"/>
<path d="M4.45272 14.6665C4.26848 14.1458 3.69705 13.8731 3.1764 14.0574C2.65576 14.2416 2.38304 14.813 2.56728 15.3337C3.1308 16.9261 4.08854 18.3499 5.35114 19.4721C6.61373 20.5943 8.14002 21.3784 9.7876 21.7512C11.4352 22.1239 13.1503 22.0733 14.7731 21.6039C16.3891 21.1365 17.8611 20.2689 19.0527 19.0816L22 16.361V20.0001C22 20.5523 22.4477 21.0001 23 21.0001C23.5523 21.0001 24 20.5523 24 20.0001V14.0001C24 13.4478 23.5523 13.0001 23 13.0001H17C16.4477 13.0001 16 13.4478 16 14.0001C16 14.5523 16.4477 15.0001 17 15.0001H20.5257L17.6817 17.6253C17.6719 17.6344 17.6622 17.6437 17.6527 17.6531C16.6974 18.609 15.5155 19.3072 14.2173 19.6827C12.9192 20.0582 11.547 20.0987 10.229 19.8005C8.91091 19.5022 7.68987 18.875 6.6798 17.9772C5.66972 17.0795 4.90353 15.9404 4.45272 14.6665Z" fill="#2D3648"/>
</svg>
