<svg width="24" height="24" viewBox="0 0 24 24" fill="none" xmlns="http://www.w3.org/2000/svg">
<path d="M5 16C5 15.4477 5.44772 15 6 15H6.01C6.56228 15 7.01 15.4477 7.01 16C7.01 16.5523 6.56228 17 6.01 17H6C5.44772 17 5 16.5523 5 16Z" fill="#2D3648"/>
<path d="M10 15C9.44771 15 9 15.4477 9 16C9 16.5523 9.44771 17 10 17H10.01C10.5623 17 11.01 16.5523 11.01 16C11.01 15.4477 10.5623 15 10.01 15H10Z" fill="#2D3648"/>
<path fill-rule="evenodd" clip-rule="evenodd" d="M7.23947 3C6.68134 3.0003 6.13437 3.15628 5.66004 3.45042C5.18617 3.74427 4.80358 4.16436 4.5552 4.66354L4.55447 4.665L1.11483 11.5343C1.0415 11.6734 1 11.8318 1 12V18C1 18.7956 1.31607 19.5587 1.87868 20.1213C2.44129 20.6839 3.20435 21 4 21H20C20.7957 21 21.5587 20.6839 22.1213 20.1213C22.6839 19.5587 23 18.7957 23 18V12C23 11.9873 22.9998 11.9745 22.9993 11.9618C22.9935 11.8079 22.9529 11.6628 22.8852 11.5343L19.4455 4.665L19.4449 4.66368C19.1965 4.16444 18.8139 3.7443 18.34 3.45042C17.8656 3.15628 17.3187 3.0003 16.7605 3H7.23947ZM20.3809 11L17.6558 5.55773L17.6545 5.555C17.5717 5.38839 17.4441 5.24818 17.2859 5.15014C17.1279 5.05213 16.9456 5.00013 16.7597 5H7.24034C7.05436 5.00013 6.87211 5.05213 6.71405 5.15014C6.55594 5.24819 6.42832 5.38839 6.34553 5.555L5.45 5.11L6.34417 5.55773L3.61908 11H20.3809ZM3 13V18C3 18.2652 3.10536 18.5196 3.29289 18.7071C3.48043 18.8946 3.73478 19 4 19H20C20.2652 19 20.5196 18.8946 20.7071 18.7071C20.8946 18.5196 21 18.2652 21 18V13H3Z" fill="#2D3648"/>
</svg>
